<?xml version="1.0" encoding="utf-8"?>
<!-- Generator: Adobe Illustrator 15.0.0, SVG Export Plug-In . SVG Version: 6.00 Build 0)  -->
<!DOCTYPE svg PUBLIC "-//W3C//DTD SVG 1.1//EN" "http://www.w3.org/Graphics/SVG/1.1/DTD/svg11.dtd" [
	<!ENTITY ns_extend "http://ns.adobe.com/Extensibility/1.0/">
	<!ENTITY ns_ai "http://ns.adobe.com/AdobeIllustrator/10.0/">
	<!ENTITY ns_graphs "http://ns.adobe.com/Graphs/1.0/">
	<!ENTITY ns_vars "http://ns.adobe.com/Variables/1.0/">
	<!ENTITY ns_imrep "http://ns.adobe.com/ImageReplacement/1.0/">
	<!ENTITY ns_sfw "http://ns.adobe.com/SaveForWeb/1.0/">
	<!ENTITY ns_custom "http://ns.adobe.com/GenericCustomNamespace/1.0/">
	<!ENTITY ns_adobe_xpath "http://ns.adobe.com/XPath/1.0/">
]>
<svg version="1.1" xmlns:x="&ns_extend;" xmlns:i="&ns_ai;" xmlns:graph="&ns_graphs;"
	 xmlns="http://www.w3.org/2000/svg" xmlns:xlink="http://www.w3.org/1999/xlink" x="0px" y="0px" width="134.848px"
	 height="28.282px" viewBox="0 0 134.848 28.282" enable-background="new 0 0 134.848 28.282" xml:space="preserve">
<metadata>
	<sfw  xmlns="&ns_sfw;">
		<slices></slices>
		<sliceSourceBounds  x="712.076" y="765.359" width="134.848" height="28.282" bottomLeftOrigin="true"></sliceSourceBounds>
	</sfw>
</metadata>
<g id="Layer_1">
</g>
<g id="COMICS">
	<path fill="#FFFFFF" d="M0,0v28.282h134.848V0H0z M90.578,6.621c0.314,0.229-0.183,0.44-0.283,0.567
		C90.047,7.024,90.495,6.765,90.578,6.621z M79.239,8.889C78.334,9.168,77.977,8.78,79.239,8.889L79.239,8.889z M22.91,20.892
		c-1.553,1.342-3.567,2.521-6.427,2.74c-1.623,0.125-3.667,0.128-4.914-0.472c-2.136-1.028-4.003-4.985-4.253-7.845
		C6.874,10.262,8.77,6.592,11.947,4.92c1.813-0.955,5.79-1.018,8.223-0.094c-0.41,1.292-0.482,2.92-0.851,4.252
		c-3.793-1.086-6.434,2.305-5.292,5.388c0.471,1.27,2.058,2.792,4.442,2.363c1.594-0.288,2.24-1.815,3.308-2.836
		c1.471,0.104,3.053,0.098,4.158,0.567C25.985,17.417,24.578,19.451,22.91,20.892z M42.568,19.286
		c-3.493,3.267-12.797,2.742-13.703-2.646c-0.465-2.756,1.29-6.044,2.74-7.277c0.857-0.729,2.135-1.419,3.024-1.796
		c2.596-0.51,5.614,0.979,7.278,2.269c1.004,0.778,2.294,2.069,2.552,3.497C44.858,15.546,44.005,17.941,42.568,19.286z
		 M59.58,19.758c0.411-0.22,1.227-0.033,1.795-0.095C60.964,19.882,60.149,19.696,59.58,19.758z M65.818,19.853
		c-0.67-1.411-0.917-3.241-1.985-4.254c-0.939,0.729-1.078,2.261-1.606,3.403c-1.624-0.293-3.021,0.403-4.253,0
		c-1.15-0.377-1.197-2.446-2.552-2.553c-0.753,0.79-0.644,2.443-1.04,3.592c-1.441,0.238-3.56,0.27-4.915,0.283
		c-0.046-4.646,0.593-9.424,1.04-13.893c1.304-0.339,2.218-1.452,3.591-1.229c0.838,0.137,1.953,1.307,2.741,1.984
		c0.934,0.802,1.802,1.54,2.646,1.985c1.701-1.417,2.436-3.802,3.78-5.576c2.107-0.461,4.795-0.233,6.805,0.189
		c1.957,4.911,2.956,10.779,4.158,16.445C71.428,20.102,68.819,19.781,65.818,19.853z M77.253,21.175
		c0.276-3.944,0.881-8.065,1.417-11.435c1.373-0.538,3.18-0.09,4.915-0.189c0.562,3.753,1.215,7.417,1.701,11.247
		C82.504,20.819,80.041,21.16,77.253,21.175z M95.871,22.5c-1.988,0.193-4.268-0.646-5.387-2.08
		c-3.079-3.943-2.215-11.318,1.134-13.798c1.008-0.747,3.15-1.861,5.577-1.417c1.615,0.296,2.542,1.749,3.591,2.835
		c-0.454,0.775-1.196,1.262-1.891,1.796c-0.645-0.22-0.766-0.385-1.513-0.378c-4.158,0.039-3.4,7.349,0.284,6.899
		c1.29-0.157,1.929-1.161,2.93-1.985c0.983,0.151,1.853,0.416,2.74,0.662C104.064,20.118,100.094,22.086,95.871,22.5z
		 M124.413,19.097c-1.644,3.278-6.542,4.888-11.719,4.252c-2.739-1.135-4.686-3.063-5.859-5.765
		c1.102-0.567,2.224-1.115,3.591-1.418c0.822,1.75,3.136,2.798,5.198,1.984c1.064-0.419,2.596-2.021,2.174-3.78
		c-0.739-3.081-7.533-1.505-8.695-4.63c-0.264-0.71-0.32-1.898,0-2.741c0.97-2.556,6.191-5.174,9.356-3.686
		c1.864,0.876,2.29,2.295,3.309,4.063c-0.328,0.838-1.115,1.217-1.701,1.796c-0.733-0.244-0.979-0.974-2.175-0.756
		c-1.612,1.894,2.771,3.158,4.159,4.158C123.696,13.761,125.742,16.446,124.413,19.097z"/>
</g>
<g id="DIGITAL" display="none">
	<path display="inline" fill="#FFFFFF" d="M0,0v28.282h134.848V0H0z M23.083,17.697c-1.234,1.832-4.95,4.185-7.08,4.655
		c-2.195,0.485-4.352-0.124-6.557-0.424C8.38,16.995,7.641,10.663,7.177,4.722c4.398-2.286,10.645-0.243,13.477,2.465
		C22.539,8.991,25.244,14.487,23.083,17.697z M35.04,22.002c-1.712,0.452-4.518,0.156-6.431-0.02
		c0.676-5.285,0.979-10.963,1.726-16.174c1.262-0.323,2.63-0.535,4.168-0.57c0.968,1.518,0.365,3.641,0.401,5.637
		C34.969,14.467,35.088,18.407,35.04,22.002z M52.18,22.544c-0.72,0.318-1.499,0.778-2.031,0.89
		c-6.44,1.352-10.984-3.214-11.317-8.713c-0.35-5.799,2.351-12.064,9.245-11.169c1.32,0.171,2.167,0.765,3.855,1.298
		c-0.088,1.655-0.039,3.178,0.022,4.689c-5.889-1.691-10.503,3.732-7.152,7.736c0.643,0.767,2.634,1.704,4.114,1.706
		c2.713,0.005,4.092-2.922,0.886-3.462c0.018-0.76,0.036-1.518,0.055-2.277c1.914-0.264,3.72,0.148,5.759,0.137
		C56.988,17.914,55.36,21.138,52.18,22.544z M61.331,20.886c-0.26-4.831,0.104-8.001,0.179-13.128
		c1.336-0.336,3.2-0.453,4.558-0.025c0.9,4.115,1.302,9.401,1.686,13.575C65.72,21.066,63.298,21.194,61.331,20.886z M80.755,9.959
		c-0.231,3.509-0.551,6.926-0.523,10.707c-1.998,0.072-3.552-0.278-5.213-0.525c-0.281-3.223-0.24-6.754-0.294-10.191
		c-0.864-0.354-2.257-0.204-3.204-0.479c-0.106-1.513-0.484-2.768-0.294-4.563c3.991-0.83,9.533-1.09,14.082-0.468
		c0.376,1.299,0.194,3.129,0.29,4.698C83.992,9.419,81.931,9.224,80.755,9.959z M100.459,21.014c-0.78-1.48-1.017-3.48-1.62-5.131
		c-1.425-0.311-3.285,0.004-4.563,0.293c-0.924,1.503-1.562,3.305-2.003,5.313c-1.801,0.06-3.179-0.286-4.952-0.252
		c1.093-5.719,3.62-11.12,5.093-16.897c2.617-0.203,6.014-0.255,8.578-0.063c2.028,5.003,2.905,11.103,4.018,16.979
		C103.447,21.219,102.116,20.961,100.459,21.014z M111.138,22.744c0.069-0.184,1.214-0.297,1.067,0.159
		C111.707,22.985,111.637,22.661,111.138,22.744z M111.02,22.07c-0.029-5.795,1.002-10.479,2.103-15.092
		c1.484-0.502,3.011-0.071,4.554,0.108c0.194,3.085,0.367,6.193,0.582,9.26c2.215,0.288,4.298,0.703,6.27,1.222
		c0.302,1.283,0.17,2.978,0.434,4.298C120.376,21.94,115.554,22.389,111.02,22.07z"/>
</g>
<g id="ORIGINAL" display="none">
	<path display="inline" fill="#FFFFFF" d="M0,0v28.282h134.848V0H0z M3.427,13.682c0.805-3.377,4.59-5.822,8.69-6.149
		c4.752-0.38,8.77,2.127,9.358,6.149C23.088,24.702,0.71,25.077,3.427,13.682z M38.187,11.677c-0.332,1.528-2.188,2.433-3.743,3.074
		c1.27,2.507,2.461,4.756,3.208,7.487c-1.496,0.421-3.072,0.76-4.946,0.802c-1.235-1.305-1.87-3.211-3.076-4.547
		c-0.289,0.648-0.061,1.811-0.134,2.675c-1.035,0.206-2.708,0.206-3.743,0c-0.294-5.188-2.054-8.91-1.605-14.84
		C28.189,1.782,39.565,5.328,38.187,11.677z M41.797,20.633c-0.355-4.545-0.104-9.292-0.268-13.77
		c1.402-0.336,3.04-0.437,4.546-0.669c0.948,2.926,1.005,6.652,1.336,10.162c0.147,1.55,0.379,3.08,0.535,4.546
		C46.079,20.63,43.983,20.585,41.797,20.633z M64.391,22.105c-1.58,1.361-5.059,2.097-7.888,1.204
		c-2.411-0.763-5.488-4.172-5.748-6.686c-0.371-3.565,1.733-8.018,4.411-9.626c2.607-1.567,6.753-1.578,10.161-0.268
		c-0.086,1.741-0.252,3.403-0.401,5.081c-1.916-0.16-3.768-1.277-5.882-0.802c-1.383,0.312-2.406,1.237-2.941,2.407
		c-0.819,2.555-0.184,5.215,1.604,6.149c3.316,1.349,6.743-2.193,3.208-3.342c-0.752-0.244-1.337-0.284-1.906-0.234
		c0.07-0.28-0.236-1.285,0.017-1.403c0.761-0.354,2.333-0.195,3.276-0.172c1.453,0.034,2.982,0.37,3.693,0.874
		C66.394,18.216,65.866,20.833,64.391,22.105z M59.578,19.165c-0.017,0.294-0.568,0.057-0.802,0.133
		C58.779,18.93,59.406,18.98,59.578,19.165z M69.605,21.303c0.205-4.21,0.562-9.42,1.203-13.638c0.765-0.261,1.97-0.08,2.941-0.133
		c0.827,4.253,1.372,8.788,1.872,13.369C73.648,21.067,71.598,21.157,69.605,21.303z M96.076,21.168
		c-2.296,0.512-5.128,0.208-7.22-0.267c-0.757-1.65-1.347-2.196-2.272-3.677c-0.264-0.533-0.892-1.403-1.383-1.047
		c-0.697,0.507,0.089,3.029-0.221,3.921c-1.692,0.181-3.366,0.379-4.948,0.669c-0.315-4.363-0.409-8.948-0.936-13.103
		c1.381-1.048,3.543-0.846,4.946-1.471c0.814-0.36,2.767,2.374,3.343,3.21c0.969,1.404,1.584,2.946,2.675,3.61
		c0.934-1.517,0.778-4.124,1.47-5.884c1.665-0.207,3.615-0.128,5.349-0.267C96.999,12.02,96.498,16.554,96.076,21.168z
		 M102.895,22.239c0.42-0.338,1.561,0.045,2.006-0.269C104.654,22.494,103.446,22.424,102.895,22.239z M110.649,22.105
		c-0.675-1.24-0.849-2.983-1.738-4.011c-1.279-0.076-2.171,0.234-3.475,0.134c-0.713,0.758-0.961,1.981-1.07,3.342
		c-1.463,0.275-3.405,0.071-5.08,0.134c1.04-5.288,2.779-9.875,4.277-14.706c2.351-0.458,4.854-0.763,7.621-0.803
		c1.821,5.309,3.98,10.28,5.215,16.178C114.351,22.415,112.598,22.162,110.649,22.105z M116.531,20.099
		c0.261,0.408,0.445,0.893,0.401,1.604C116.993,22.409,116.539,20.614,116.531,20.099z M119.473,21.704
		c-0.011-5.447,0.351-10.523,1.337-14.974c1.131-0.231,3.007-0.193,4.145,0c0,3.699,0,7.399,0,11.096
		c1.773,0.232,3.566,0.445,5.481,0.535c0.282,1.054,0.642,2.032,0.669,3.343C127.446,22.053,123.125,22.086,119.473,21.704z"/>
</g>
<g id="G.DESIGN" display="none">
	<path display="inline" fill="#FFFFFF" d="M0,0v28.282h134.848V0H0z M125.354,11.315c0.18,0.184,0.194,0.533,0.241,0.85
		C125.134,12.262,125.442,11.591,125.354,11.315z M10.342,23.447c-3.559-1.112-6.868-6.155-5.824-10.917
		c1.093-4.982,7.963-10.133,13.831-6.31c0.356,0.656,0.895,1.128,1.456,1.578c-0.742,1.645-2.134,2.639-2.791,4.368
		c-3.029-1.677-8.137,0.072-7.765,4.003c0.191,2.016,2.4,3.997,4.488,4.002c0.815,0.005,2.523-0.34,2.427-2.061
		c-0.298-0.714-1.596-0.428-2.549-0.484c-0.248-0.399-0.064-1.23-0.121-1.822c2.221-0.284,4.421-0.592,6.916-0.605
		C21.942,21.004,16.394,25.341,10.342,23.447z M29.146,21.142c-1.559-0.031-3.071,0.041-4.61-0.241
		c-0.052-1.228,0.216-2.131,0.122-3.397c1.486-0.11,3.252-0.519,4.488,0.122C29.146,18.797,29.146,19.971,29.146,21.142z
		 M34.12,21.506c-0.502-4.512-0.431-9.598-0.607-14.438c5.788-1.898,11.279,1.669,12.012,6.673
		C46.477,20.252,40.078,23.338,34.12,21.506z M49.164,10.224c0.425,0.141,0.265,0.867,0.364,1.334
		C49.255,11.266,49.271,10.683,49.164,10.224z M51.227,21.385c-0.736-5.129-1.347-10.381-1.82-15.771
		c3.799-0.482,7.104,0.359,10.676,0.485c0.15,0.7,0.2,1.498,0.364,2.183c-1.584,0.761-4.135,0.556-5.945,1.092
		c-0.088,1.059,0.134,1.808,0.365,2.547c1.324,0.051,2.869-0.12,4.003,0.122c0.147,0.571,0.408,1.573,0.243,2.062
		c-0.83,0.425-2.149,0.357-3.397,0.363c-0.284,0.539,0.061,1.36,0.122,1.941c2.061,0.497,4.557-0.235,6.916,0.122
		c0.093,1.606,0.574,2.822,0.485,4.609C59.547,21.537,55.263,21.337,51.227,21.385z M78.159,22.476
		c-0.39,0.261-2.247,1.239-2.669,1.335c-2.786,0.627-6.28-0.582-7.886-1.819c-0.591-0.455-2.181-2.242-1.699-2.548
		c0.91-0.575,2.442-1.623,4.005-2.426c0.165,1.42,3.985,2.977,4.366,0.485c0.518-3.369-5.64-3.158-6.915-5.096
		c-1.722-2.619,0.582-6.572,3.154-7.279c3.587-0.985,6.821,0.656,7.28,4.489c-0.696,0.112-1.45,0.168-1.941,0.486
		c-0.396-0.85-0.569-1.379-1.334-1.578c-1.424-0.367-1.937,0.73-1.821,1.699c0.127,1.049,1.329,1.238,2.913,1.941
		c1.708,0.757,4.225,2.483,4.611,4.367C80.697,18.85,79.524,21.566,78.159,22.476z M83.862,21.872
		c-0.224-4.705,0.159-9.658,0.242-14.438c1.155-0.021,2.253,0.013,3.155,0.243c1.35,4.03,1.661,9.095,2.427,13.709
		C87.476,21.278,85.741,21.648,83.862,21.872z M98.782,21.872c-1.264-0.342-3.572-2.067-4.609-3.64
		c-1.916-2.911-1.735-8.16,0.607-10.678c1.938-2.082,6.938-2.605,8.978,0.365c-0.755,1.307-2.247,1.878-2.911,3.276
		c-1.458-0.908-3.166,0.259-3.762,1.334c-0.701,2.921,2.306,5.837,4.854,4.974c0.975-0.331,1.493-1.591,0.606-2.427
		c-0.608-0.215-1.146-0.035-1.698,0.121c-0.035-0.411-0.194-0.696-0.122-1.213c1.521-0.219,3.017-0.461,4.854-0.364
		C107.533,18.601,103.456,23.132,98.782,21.872z M118.438,21.506c-1.08-1.751-1.958-3.701-3.519-4.974
		c-0.594,1.225-0.445,3.194-0.606,4.853c-1.405-0.213-3.145-0.09-4.731-0.121c-0.527-4.592,0.488-9.271,0-13.831
		c1.325-0.452,3.408-1.203,4.853-0.849c1.107,0.271,2.428,2.438,3.275,3.519c1.165,1.481,1.958,3.011,3.035,3.761
		c0.86-1.89,1.077-4.421,1.697-6.552c0.646,0,1.294,0,1.941,0c0.35,4.825,1.322,9.03,1.456,14.073
		C123.644,21.808,120.797,21.22,118.438,21.506z"/>
</g>
<g id="VIDEOS">
	<path fill="#FFFFFF" d="M0,0v28.282h134.848V0H0z M14.621,17.184c0.266-0.258,0.388,0.67,0.737,0.736
		C14.974,18.297,14.824,17.396,14.621,17.184z M29.844,24.182c-3.395-0.043-6.128-0.747-9.698-0.614
		c-1.961-1.896-3.389-4.296-4.911-6.63c-1.518-2.327-2.693-5.014-3.683-7.856c1.629-0.581,3.234-1.185,4.788-1.841
		c2.634,3.381,4.299,7.73,6.997,11.049c0.664-0.527,0.334-1.586,0.369-2.333c0.138-2.953,0.377-7.163,0.491-10.312
		c2.101-0.272,4.493-0.254,6.875-0.245C31.347,11.854,30.48,18.228,29.844,24.182z M35.982,22.585
		c-0.15-4.896,0.247-9.246,0.737-13.504c1.687-0.155,3.297-0.386,5.156-0.368c0.373,4.271,0.27,9.267,0.491,13.995
		C40.245,23.012,38.021,22.733,35.982,22.585z M48.505,13.256c0.441,0.172,0.244,0.983,0.369,1.473
		C48.602,14.386,48.573,13.802,48.505,13.256z M62.009,20.008c-1.992,2.632-7.283,2.94-11.54,2.086
		c-0.686-5.083-1.595-9.943-2.21-15.1c3.454-0.742,8.354-0.491,11.294,1.596C62.323,10.556,64.668,16.495,62.009,20.008z
		 M69.989,22.585c0.229-4.848-0.602-10.617,0.369-15.223c2.918-0.733,6.856-0.22,9.821,0.123c0.028,0.994,0.234,1.81,0.245,2.823
		c-1.615,0.595-3.582,0.838-5.279,1.351c-0.036,0.732,0.051,1.341,0.245,1.842c0.819,0,1.637,0,2.456,0
		c0.254,0.44,0.063,1.327,0.123,1.964c-0.815,0.084-1.6,0.202-2.21,0.491c-0.013,0.503-0.024,1.006,0.122,1.351
		c1.642,0.2,3.527,0.156,5.279,0.245c0.34,1.583,0.264,3.583,0.492,5.278C78.034,23.811,73.61,23.027,69.989,22.585z M101.067,16.08
		c-0.63,3.05-5.855,6.798-10.558,4.91c-0.709-0.284-2.094-1.61-2.578-2.333c-1.82-2.71-1.437-7.749,0.736-9.207
		c1.081-0.725,2.781-0.773,4.665-1.473C97.763,7.834,102.263,10.284,101.067,16.08z M114.308,23.568
		c-4.463,0.698-7.938-1.212-9.575-4.174c0.52-0.911,1.189-1.674,2.086-2.21c0.066,0.968,5.167,3.53,5.771,1.105
		c0.569-2.294-4.44-3.518-5.401-4.543c-0.979-1.042-1.722-3.598-1.229-5.77c0.659-2.901,5.978-5.375,9.698-3.315
		c1.388,0.769,2.946,2.042,3.701,3.438c-0.76,0.794-2.956,1.154-3.946,1.718c-0.648-0.407-1.58-2.105-3.438-1.718
		c-1.34,0.278-1.508,2.412-0.491,3.191c0.945,0.726,2.788,0.668,4.297,1.228c1.808,0.67,4.9,2.121,5.051,4.543
		C121.036,20.357,117.575,23.056,114.308,23.568z"/>
</g>
</svg>
