<?xml version="1.0" encoding="utf-8"?>
<!-- Generator: Adobe Illustrator 15.0.0, SVG Export Plug-In . SVG Version: 6.00 Build 0)  -->
<!DOCTYPE svg PUBLIC "-//W3C//DTD SVG 1.1//EN" "http://www.w3.org/Graphics/SVG/1.1/DTD/svg11.dtd" [
	<!ENTITY ns_extend "http://ns.adobe.com/Extensibility/1.0/">
	<!ENTITY ns_ai "http://ns.adobe.com/AdobeIllustrator/10.0/">
	<!ENTITY ns_graphs "http://ns.adobe.com/Graphs/1.0/">
	<!ENTITY ns_vars "http://ns.adobe.com/Variables/1.0/">
	<!ENTITY ns_imrep "http://ns.adobe.com/ImageReplacement/1.0/">
	<!ENTITY ns_sfw "http://ns.adobe.com/SaveForWeb/1.0/">
	<!ENTITY ns_custom "http://ns.adobe.com/GenericCustomNamespace/1.0/">
	<!ENTITY ns_adobe_xpath "http://ns.adobe.com/XPath/1.0/">
]>
<svg version="1.1" id="_x31__COMICS_1_" xmlns:x="&ns_extend;" xmlns:i="&ns_ai;" xmlns:graph="&ns_graphs;"
	 xmlns="http://www.w3.org/2000/svg" xmlns:xlink="http://www.w3.org/1999/xlink" x="0px" y="0px" width="72px" height="81.486px"
	 viewBox="0 0 72 81.486" enable-background="new 0 0 72 81.486" xml:space="preserve">
<metadata>
	<sfw  xmlns="&ns_sfw;">
		<slices></slices>
		<sliceSourceBounds  x="291.741" y="-56.871" width="72" height="81.487" bottomLeftOrigin="true"></sliceSourceBounds>
	</sfw>
</metadata>
<path fill="#FFFFFF" d="M136.561,300.24l-9.119-31.2l-27.062-2.413l-20.698,23.054l-1.44,46.801l38.64,11.633l21.833-18.75
	l0.247-20.004l11.28-7.246L136.561,300.24z M120.161,286.817h3.167v1.5h-3.167V286.817z M117.744,303.446h4.5v2.299h-4.5V303.446z
	 M115.661,280.56l1.083,12.519h-11.167l-0.697-11.464L115.661,280.56z M89.271,284.278l9.806-0.357l0.083,5.025h-5.083l-0.583,5.085
	l6.586,0.665l-0.419,2.425l-10.38-0.425C89.15,291.696,89.271,284.278,89.271,284.278z M96.24,315.362l-3.08-4.805l0.667,6.389
	l-4.167,0.338l-2.917-11.756l6.167-1.572l3.33,3.74l1.254-4.75h6.25l1.136,11.25l-4.08,0.332l-1.223-4.413l-0.75,4.581
	L96.24,315.362z M102.411,334.612l-3.25-14.691l9.167-1.059l1,3.75c0,0-3.917,0.916-4.447,0.916c-0.529,0,1.688,4,1.688,4
	l5.094-0.791c0,0,1.333,6.125,1.25,6.375S102.411,334.612,102.411,334.612z M108.911,310.946l-0.083-0.389l-1.167-8.945l4.673-1.219
	c0,0,1.41,10.219,1.577,10.553C114.078,311.281,108.911,310.946,108.911,310.946z M117.744,329.862l-0.583-6.416l5.083-1.168
	l-0.542-2.357h-5.738l-0.887-6.059l8.833-0.928l0.667,2.844l-6.167,0.918l0.333,1.25l6.417,0.166l2.25,10.447L117.744,329.862z"/>
</svg>
