<?xml version="1.0" encoding="utf-8"?>
<!-- Generator: Adobe Illustrator 15.0.0, SVG Export Plug-In . SVG Version: 6.00 Build 0)  -->
<!DOCTYPE svg PUBLIC "-//W3C//DTD SVG 1.1//EN" "http://www.w3.org/Graphics/SVG/1.1/DTD/svg11.dtd" [
	<!ENTITY ns_extend "http://ns.adobe.com/Extensibility/1.0/">
	<!ENTITY ns_ai "http://ns.adobe.com/AdobeIllustrator/10.0/">
	<!ENTITY ns_graphs "http://ns.adobe.com/Graphs/1.0/">
	<!ENTITY ns_vars "http://ns.adobe.com/Variables/1.0/">
	<!ENTITY ns_imrep "http://ns.adobe.com/ImageReplacement/1.0/">
	<!ENTITY ns_sfw "http://ns.adobe.com/SaveForWeb/1.0/">
	<!ENTITY ns_custom "http://ns.adobe.com/GenericCustomNamespace/1.0/">
	<!ENTITY ns_adobe_xpath "http://ns.adobe.com/XPath/1.0/">
]>
<svg version="1.1" id="Layer_1" xmlns:x="&ns_extend;" xmlns:i="&ns_ai;" xmlns:graph="&ns_graphs;"
	 xmlns="http://www.w3.org/2000/svg" xmlns:xlink="http://www.w3.org/1999/xlink" x="0px" y="0px" width="134.848px"
	 height="28.282px" viewBox="0 0 134.848 28.282" enable-background="new 0 0 134.848 28.282" xml:space="preserve">
<metadata>
	<sfw  xmlns="&ns_sfw;">
		<slices></slices>
		<sliceSourceBounds  x="182.076" y="236.359" width="134.848" height="28.282" bottomLeftOrigin="true"></sliceSourceBounds>
	</sfw>
</metadata>
<path fill="#FFFFFF" d="M0,0v28.282h134.848V0H0z M25.023,16.049c0,0.925-0.143,1.875-0.426,2.826
	c-0.276,0.933-0.758,1.766-1.434,2.474c-0.697,0.749-1.5,1.323-2.389,1.711c-0.89,0.394-1.845,0.587-2.871,0.587
	c-0.98,0-1.929-0.193-2.819-0.587c-0.89-0.39-1.702-0.956-2.412-1.683c-0.659-0.711-1.133-1.521-1.409-2.414
	c-0.285-0.908-0.436-1.889-0.454-2.914v-4.612c0-0.812,0.165-1.646,0.486-2.485c0.321-0.837,0.784-1.588,1.371-2.225
	c0.715-0.731,1.523-1.301,2.408-1.69c0.879-0.389,1.831-0.586,2.83-0.586h0.026c1,0,1.955,0.197,2.845,0.586
	c0.892,0.39,1.694,0.958,2.391,1.687c0.605,0.644,1.069,1.377,1.373,2.187c0.307,0.817,0.47,1.67,0.485,2.527v4.611H25.023z
	 M35.346,23.622l-2.58-6.246l-0.125-0.168h-0.459v6.414h-3.904V4.45h5.744c1.085,0,1.996,0.165,2.707,0.49
	c0.708,0.325,1.28,0.762,1.703,1.298c0.423,0.539,0.731,1.184,0.918,1.912c0.187,0.745,0.282,1.537,0.282,2.357
	c0,0.845-0.14,1.601-0.415,2.252c-0.278,0.662-0.612,1.222-0.99,1.665c-0.377,0.446-0.761,0.782-1.136,1.002
	c-0.452,0.265-0.693,0.318-0.815,0.318h-0.449l4.002,7.877H35.346L35.346,23.622z M47.61,23.622h-3.9V4.45h3.9V23.622z M64.63,20.15
	c-0.315,0.438-0.693,0.869-1.122,1.282c-0.449,0.431-0.957,0.812-1.513,1.138c-0.552,0.323-1.167,0.589-1.833,0.783
	c-0.663,0.194-1.366,0.293-2.122,0.293c-1.142,0-2.155-0.188-3.021-0.562c-0.857-0.369-1.589-0.892-2.169-1.547
	c-0.583-0.656-1.042-1.457-1.364-2.373c-0.324-0.924-0.508-1.947-0.542-3.037v-4.08c0-1.027,0.154-2.015,0.463-2.937
	c0.306-0.917,0.761-1.728,1.353-2.413c0.591-0.684,1.335-1.234,2.213-1.641c0.879-0.404,1.91-0.608,3.066-0.608V4.172l0.015,0.278
	c1.158,0.053,2.108,0.25,2.821,0.596c0.715,0.344,1.296,0.747,1.72,1.198c0.432,0.457,0.76,0.913,0.974,1.363
	c0.174,0.359,0.334,0.663,0.481,0.912l-3.165,2.084l-0.17-0.37C60.588,9.959,60.41,9.7,60.189,9.471
	c-0.226-0.236-0.507-0.437-0.833-0.601c-0.338-0.17-0.764-0.256-1.263-0.256c-0.961,0-1.74,0.333-2.315,0.983
	c-0.563,0.641-0.85,1.491-0.85,2.529v3.843c0,0.51,0.085,0.992,0.256,1.439c0.173,0.447,0.411,0.836,0.707,1.149
	c0.297,0.317,0.649,0.573,1.051,0.765c0.406,0.191,0.857,0.291,1.328,0.291h0.001l0.138,0.002c0.607,0,1.115-0.121,1.51-0.359
	c0.421-0.256,0.745-0.584,0.963-0.979l0.034-0.062v-1.328H58.82v-3.266h5.812L64.63,20.15L64.63,20.15z M73.034,23.622h-3.901V4.45
	h3.901V23.622z M90.292,23.622h-4.066l-5.743-10.507v10.507h-4.167V4.45h4.094l5.716,10.482V4.45h4.166L90.292,23.622L90.292,23.622
	z M105.852,23.622l-1.777-5.195h-4.241l-1.748,5.195h-4.496L99.206,4.45h5.523l5.618,19.171H105.852z M123.908,23.622h-9.178V4.45
	h3.901v15.269h5.275L123.908,23.622L123.908,23.622z"/>
</svg>
