<?xml version="1.0" encoding="utf-8"?>
<!-- Generator: Adobe Illustrator 15.0.0, SVG Export Plug-In . SVG Version: 6.00 Build 0)  -->
<!DOCTYPE svg PUBLIC "-//W3C//DTD SVG 1.1//EN" "http://www.w3.org/Graphics/SVG/1.1/DTD/svg11.dtd" [
	<!ENTITY ns_extend "http://ns.adobe.com/Extensibility/1.0/">
	<!ENTITY ns_ai "http://ns.adobe.com/AdobeIllustrator/10.0/">
	<!ENTITY ns_graphs "http://ns.adobe.com/Graphs/1.0/">
	<!ENTITY ns_vars "http://ns.adobe.com/Variables/1.0/">
	<!ENTITY ns_imrep "http://ns.adobe.com/ImageReplacement/1.0/">
	<!ENTITY ns_sfw "http://ns.adobe.com/SaveForWeb/1.0/">
	<!ENTITY ns_custom "http://ns.adobe.com/GenericCustomNamespace/1.0/">
	<!ENTITY ns_adobe_xpath "http://ns.adobe.com/XPath/1.0/">
]>
<svg version="1.1" id="_x21__x21__xA0_Image_1_" xmlns:x="&ns_extend;" xmlns:i="&ns_ai;" xmlns:graph="&ns_graphs;"
	 xmlns="http://www.w3.org/2000/svg" xmlns:xlink="http://www.w3.org/1999/xlink" x="0px" y="0px" width="114.296px"
	 height="106.391px" viewBox="0 0 114.296 106.391" enable-background="new 0 0 114.296 106.391" xml:space="preserve">
<metadata>
	<sfw  xmlns="&ns_sfw;">
		<slices></slices>
		<sliceSourceBounds  x="192.603" y="197.555" width="113.795" height="105.891" bottomLeftOrigin="true"></sliceSourceBounds>
	</sfw>
</metadata>
<path fill="#FFFFFF" d="M113.892,61.26c-0.641-8.31-3.76-16.829-6.719-23.04c-6.299-13.21-19.85-27.079-34.32-33.84
	c-6.51-3.04-16.21-4.42-23.52-4.08C35.473,0.94,24.093,4.34,15.973,11.1c-7.58,6.319-14.8,18.51-15.6,30.72
	c-0.551,8.36,0.799,15.13,3.359,20.399c3.85,7.91,10.11,14.48,16.32,19.681c2.139,1.79,4.41,3.8,6.24,5.52
	c-0.08,1.101-0.63,5.65-5.83,12.88c-2.04,2.83-2.66,3.341-4.97,5.841c8.119-3,13.22-9.021,19.92-13.44
	c12.51,8.14,27.819,12.48,45.121,9.12c15.649-3.04,26.609-10.59,31.68-25.2C113.744,72.21,114.362,67.41,113.892,61.26z
	 M27.492,34.14c5.31-1.57,11.38-2.381,17.76-2.881c2.28,11.08,2.04,24.681,3.12,36.96c-3.63,0.931-7.56,1.561-11.04,2.641
	C33.552,59.12,30.832,46.32,27.492,34.14z M47.413,86.221c-2.069,0.817-4.68,0.645-6.58-0.383c-1.425-0.77-2.452-2.018-2.542-3.698
	c-0.19-3.601,3.069-5.5,6-6c1.831-0.311,3.491-0.061,4.56,0.96c0,0,0,0,0,0.001h0c0.091,0.087,0.173,0.192,0.254,0.297
	c0.025,0.033,0.054,0.058,0.079,0.092C50.739,79.658,50.543,84.983,47.413,86.221z M70.212,86.7c-1.621,4.02-8.86,3.04-9.121-0.96
	c-0.18-2.76,1.459-4.021,3.6-4.56C68.212,80.3,71.792,82.79,70.212,86.7z M72.502,70.248c-0.163,1.316-0.313,2.638-0.45,3.972
	c-3.571-0.039-8.611-0.189-11.68-0.72c0.789-10.47,0.56-23.76,0.51-32.76c3.65-0.61,11.289,0.77,15.42,0.45
	C75.331,52.084,73.64,61.033,72.502,70.248z"/>
</svg>
