<?xml version="1.0" encoding="utf-8"?>
<!-- Generator: Adobe Illustrator 15.0.0, SVG Export Plug-In . SVG Version: 6.00 Build 0)  -->
<!DOCTYPE svg PUBLIC "-//W3C//DTD SVG 1.1//EN" "http://www.w3.org/Graphics/SVG/1.1/DTD/svg11.dtd" [
	<!ENTITY ns_extend "http://ns.adobe.com/Extensibility/1.0/">
	<!ENTITY ns_ai "http://ns.adobe.com/AdobeIllustrator/10.0/">
	<!ENTITY ns_graphs "http://ns.adobe.com/Graphs/1.0/">
	<!ENTITY ns_vars "http://ns.adobe.com/Variables/1.0/">
	<!ENTITY ns_imrep "http://ns.adobe.com/ImageReplacement/1.0/">
	<!ENTITY ns_sfw "http://ns.adobe.com/SaveForWeb/1.0/">
	<!ENTITY ns_custom "http://ns.adobe.com/GenericCustomNamespace/1.0/">
	<!ENTITY ns_adobe_xpath "http://ns.adobe.com/XPath/1.0/">
]>
<svg version="1.1" id="Layer_1" xmlns:x="&ns_extend;" xmlns:i="&ns_ai;" xmlns:graph="&ns_graphs;"
	 xmlns="http://www.w3.org/2000/svg" xmlns:xlink="http://www.w3.org/1999/xlink" x="0px" y="0px" width="109.718px"
	 height="28.282px" viewBox="0 0 109.718 28.282" enable-background="new 0 0 109.718 28.282" xml:space="preserve">
<metadata>
	<sfw  xmlns="&ns_sfw;">
		<slices></slices>
		<sliceSourceBounds  x="194.641" y="236.359" width="109.718" height="28.282" bottomLeftOrigin="true"></sliceSourceBounds>
	</sfw>
</metadata>
<path fill="#FFFFFF" d="M0,0v28.282h109.718V0H0z M90.65,18.864c0.229,0.277,0.514,0.528,0.844,0.744
	c0.363,0.241,0.795,0.329,1.178,0.27c0.35-0.043,0.695-0.195,1.025-0.455c0.362-0.287,0.536-0.729,0.518-1.321
	c-0.024-0.36-0.166-0.696-0.426-0.998c-0.238-0.274-0.572-0.562-0.998-0.856c-0.908-0.605-1.758-1.14-2.52-1.588
	c-0.75-0.441-1.417-0.908-1.975-1.388c-0.545-0.473-0.979-1.008-1.289-1.593c-0.303-0.572-0.457-1.317-0.457-2.203
	c0-0.815,0.168-1.539,0.496-2.147c0.334-0.617,0.781-1.14,1.328-1.556c0.558-0.419,1.207-0.743,1.93-0.963
	c0.732-0.22,1.502-0.344,2.279-0.358c0.933,0,1.761,0.132,2.461,0.392c0.701,0.264,1.3,0.599,1.776,1.001
	c0.474,0.398,0.847,0.856,1.111,1.362c0.229,0.436,0.394,0.872,0.487,1.303l-3.41,1.344c-0.043-0.125-0.098-0.256-0.157-0.397
	c-0.119-0.263-0.28-0.509-0.487-0.734c-0.205-0.225-0.451-0.417-0.734-0.573c-0.616-0.341-1.5-0.354-2.155,0.142
	c-0.361,0.274-0.545,0.684-0.545,1.214c0,0.413,0.166,0.782,0.497,1.09c0.279,0.262,0.711,0.604,1.337,1.062
	c0.805,0.452,1.592,0.913,2.342,1.373c0.728,0.446,1.386,0.958,1.949,1.524c0.557,0.556,1.014,1.192,1.353,1.896
	c0.334,0.695,0.502,1.532,0.502,2.492v0.354c-0.031,0.59-0.201,1.149-0.504,1.666c-0.308,0.522-0.738,0.986-1.275,1.377
	c-0.545,0.395-1.219,0.709-2,0.938c-0.782,0.232-1.687,0.35-2.678,0.35c-0.767,0-1.494-0.104-2.16-0.307
	c-0.668-0.203-1.281-0.494-1.818-0.863c-0.538-0.371-1.001-0.826-1.376-1.353c-0.336-0.468-0.587-0.997-0.757-1.573l3.727-1.562
	c0.018,0.037,0.035,0.074,0.059,0.119C90.248,18.329,90.425,18.59,90.65,18.864z M83.296,11.437v4.612
	c0,0.925-0.146,1.875-0.428,2.826c-0.277,0.933-0.76,1.766-1.434,2.474c-0.698,0.749-1.5,1.323-2.391,1.711
	c-1.737,0.765-3.873,0.798-5.689,0c-0.889-0.39-1.701-0.956-2.412-1.683c-0.658-0.709-1.132-1.52-1.412-2.414
	c-0.279-0.905-0.434-1.887-0.451-2.914v-4.612c0-0.812,0.166-1.646,0.485-2.485c0.321-0.835,0.784-1.585,1.372-2.225
	c0.714-0.731,1.525-1.301,2.408-1.69c0.879-0.389,1.83-0.586,2.83-0.586h0.025c1,0,1.957,0.197,2.846,0.586
	c0.891,0.39,1.693,0.958,2.39,1.687c0.606,0.644,1.069,1.377,1.373,2.187C83.113,9.727,83.28,10.579,83.296,11.437z M63.598,12.084
	v3.9h-5.621v3.735h7.636v3.902H54.075V4.45h11.537v3.9h-7.636v3.733L63.598,12.084L63.598,12.084z M49.865,14.036
	c0,1.292-0.149,2.542-0.444,3.71c-0.287,1.148-0.771,2.172-1.434,3.039c-0.66,0.863-1.535,1.557-2.604,2.067
	c-1.07,0.507-2.406,0.769-3.966,0.769h-4.283V4.45h3.701c1.491,0,2.819,0.244,3.947,0.733C45.905,5.668,46.854,6.34,47.6,7.18
	c0.747,0.842,1.316,1.859,1.694,3.026C49.674,11.386,49.865,12.672,49.865,14.036z M33.085,4.45v19.171h-3.902V4.45H33.085z
	 M26.062,4.45l-6.158,19.171h-3.572L10.43,4.45h4.676l3.172,9.511l3.114-9.511H26.062z"/>
</svg>
