<?xml version="1.0" encoding="utf-8"?>
<!-- Generator: Adobe Illustrator 15.0.0, SVG Export Plug-In . SVG Version: 6.00 Build 0)  -->
<!DOCTYPE svg PUBLIC "-//W3C//DTD SVG 1.1//EN" "http://www.w3.org/Graphics/SVG/1.1/DTD/svg11.dtd" [
	<!ENTITY ns_extend "http://ns.adobe.com/Extensibility/1.0/">
	<!ENTITY ns_ai "http://ns.adobe.com/AdobeIllustrator/10.0/">
	<!ENTITY ns_graphs "http://ns.adobe.com/Graphs/1.0/">
	<!ENTITY ns_vars "http://ns.adobe.com/Variables/1.0/">
	<!ENTITY ns_imrep "http://ns.adobe.com/ImageReplacement/1.0/">
	<!ENTITY ns_sfw "http://ns.adobe.com/SaveForWeb/1.0/">
	<!ENTITY ns_custom "http://ns.adobe.com/GenericCustomNamespace/1.0/">
	<!ENTITY ns_adobe_xpath "http://ns.adobe.com/XPath/1.0/">
]>
<svg version="1.1" id="Layer_1" xmlns:x="&ns_extend;" xmlns:i="&ns_ai;" xmlns:graph="&ns_graphs;"
	 xmlns="http://www.w3.org/2000/svg" xmlns:xlink="http://www.w3.org/1999/xlink" x="0px" y="0px" width="115.098px"
	 height="28.282px" viewBox="0 0 115.098 28.282" enable-background="new 0 0 115.098 28.282" xml:space="preserve">
<metadata>
	<sfw  xmlns="&ns_sfw;">
		<slices></slices>
		<sliceSourceBounds  x="191.951" y="236.359" width="115.098" height="28.282" bottomLeftOrigin="true"></sliceSourceBounds>
	</sfw>
</metadata>
<path fill="#FFFFFF" d="M0,0v28.282h115.098V0H0z M96.029,18.864c0.229,0.275,0.514,0.527,0.844,0.744
	c0.364,0.241,0.797,0.329,1.18,0.27c0.35-0.043,0.695-0.195,1.025-0.455c0.362-0.287,0.536-0.729,0.516-1.319
	c-0.021-0.36-0.165-0.698-0.425-1c-0.237-0.274-0.569-0.56-0.996-0.856c-0.908-0.605-1.755-1.14-2.521-1.588
	c-0.751-0.439-1.414-0.906-1.974-1.388c-0.547-0.472-0.979-1.006-1.289-1.593c-0.304-0.572-0.459-1.315-0.459-2.203
	c0-0.815,0.168-1.539,0.498-2.147c0.333-0.617,0.779-1.14,1.328-1.556c0.556-0.419,1.204-0.743,1.929-0.963
	c0.731-0.22,1.501-0.344,2.28-0.358c0.93,0,1.76,0.132,2.46,0.392c0.702,0.265,1.299,0.601,1.775,1.001
	c0.474,0.397,0.849,0.856,1.112,1.362c0.229,0.436,0.393,0.872,0.485,1.303l-3.408,1.344c-0.045-0.125-0.098-0.257-0.159-0.397
	c-0.118-0.262-0.28-0.509-0.485-0.734c-0.206-0.225-0.452-0.417-0.733-0.573c-0.619-0.341-1.502-0.355-2.156,0.142
	c-0.362,0.274-0.547,0.684-0.547,1.214c0,0.413,0.168,0.782,0.5,1.09c0.281,0.264,0.711,0.604,1.338,1.062
	c0.808,0.453,1.594,0.916,2.338,1.373c0.73,0.446,1.388,0.959,1.949,1.524c0.559,0.556,1.015,1.194,1.354,1.896
	c0.334,0.693,0.503,1.532,0.503,2.492l0.001,0.354c-0.033,0.593-0.204,1.149-0.505,1.666c-0.309,0.522-0.736,0.986-1.276,1.377
	c-0.546,0.395-1.219,0.709-1.997,0.938c-0.787,0.232-1.688,0.35-2.68,0.35c-0.767,0-1.493-0.104-2.161-0.307
	c-0.669-0.205-1.28-0.494-1.819-0.863c-0.537-0.371-1-0.826-1.375-1.353c-0.334-0.468-0.588-0.994-0.758-1.575l3.729-1.561
	c0.016,0.037,0.034,0.074,0.057,0.119C95.628,18.333,95.805,18.594,96.029,18.864z M84.565,10.959
	c-0.094-0.232-0.209-0.473-0.344-0.717c-0.197-0.358-0.44-0.681-0.723-0.961c-0.286-0.289-0.615-0.521-0.978-0.691
	c-0.338-0.16-0.697-0.241-1.068-0.241L81.32,8.352c-0.975,0.078-1.766,0.473-2.352,1.172c-0.578,0.692-0.873,1.568-0.873,2.604
	v3.844c0,1.034,0.299,1.918,0.886,2.629c0.597,0.72,1.393,1.123,2.368,1.198c0.087,0.006,0.174,0.009,0.258,0.009
	c0.722,0,1.34-0.222,1.838-0.659c0.457-0.4,0.824-0.873,1.097-1.412l3.353,1.87c-0.145,0.272-0.327,0.599-0.546,0.97
	c-0.274,0.467-0.672,0.938-1.18,1.395c-0.506,0.455-1.162,0.854-1.95,1.184c-0.784,0.328-1.77,0.494-2.955,0.494
	c-1.296,0-2.395-0.205-3.264-0.607c-0.866-0.404-1.583-0.955-2.128-1.633c-0.55-0.684-0.955-1.49-1.209-2.395
	c-0.26-0.922-0.416-1.896-0.469-2.883v-4.077c0.018-0.938,0.178-1.879,0.479-2.794c0.297-0.909,0.744-1.731,1.33-2.444
	c0.581-0.708,1.322-1.286,2.201-1.717c0.876-0.43,1.914-0.646,3.086-0.646h0.025c1.037,0,1.939,0.145,2.686,0.433
	c0.746,0.286,1.393,0.663,1.921,1.118c0.53,0.451,0.964,0.972,1.292,1.544c0.293,0.509,0.531,1.026,0.713,1.535L84.565,10.959z
	 M70.754,4.45v19.171h-3.902V4.45H70.754z M55.802,23.622h-2.471l-2.938-8.469v8.469h-4.167V4.45h4.063l4.276,11.994L58.87,4.45
	h3.983v19.171h-4.167v-8.242L55.802,23.622z M42.44,11.437v4.612c0,0.925-0.143,1.875-0.426,2.826
	c-0.277,0.933-0.76,1.766-1.435,2.474c-0.696,0.749-1.5,1.323-2.389,1.711c-0.889,0.394-1.847,0.587-2.871,0.587
	c-0.981,0-1.93-0.193-2.819-0.587c-0.891-0.39-1.703-0.956-2.414-1.683c-0.658-0.711-1.132-1.521-1.409-2.414
	c-0.283-0.908-0.436-1.889-0.452-2.914v-4.612c0-0.812,0.163-1.646,0.485-2.485c0.32-0.837,0.785-1.588,1.371-2.225
	c0.714-0.731,1.521-1.301,2.406-1.69c0.88-0.389,1.832-0.586,2.832-0.586h0.026c0.998,0,1.956,0.197,2.845,0.586
	c0.892,0.39,1.693,0.958,2.389,1.687c0.608,0.644,1.07,1.377,1.375,2.187C42.259,9.724,42.423,10.577,42.44,11.437z M20.992,10.959
	c-0.095-0.232-0.209-0.473-0.345-0.717c-0.196-0.358-0.439-0.681-0.721-0.961C19.639,8.992,19.31,8.76,18.949,8.59
	c-0.338-0.16-0.698-0.241-1.07-0.241l-0.131,0.003c-0.976,0.078-1.766,0.473-2.352,1.172c-0.58,0.692-0.872,1.568-0.872,2.604v3.844
	c0,1.034,0.299,1.918,0.886,2.629c0.596,0.72,1.392,1.123,2.367,1.198c0.088,0.006,0.174,0.009,0.26,0.009
	c0.72,0,1.337-0.222,1.836-0.659c0.457-0.4,0.825-0.873,1.097-1.412l3.351,1.87c-0.145,0.272-0.326,0.599-0.546,0.97
	c-0.274,0.467-0.672,0.938-1.179,1.395c-0.506,0.455-1.162,0.854-1.951,1.184c-0.783,0.328-1.769,0.494-2.955,0.494
	c-1.296,0-2.394-0.205-3.264-0.607c-0.866-0.404-1.583-0.955-2.127-1.633c-0.549-0.684-0.956-1.49-1.21-2.395
	c-0.259-0.922-0.416-1.896-0.467-2.883v-4.077c0.017-0.938,0.177-1.879,0.477-2.794c0.296-0.909,0.744-1.731,1.33-2.444
	c0.582-0.708,1.322-1.286,2.202-1.717c0.875-0.43,1.913-0.646,3.085-0.646h0.027c1.035,0,1.938,0.145,2.683,0.433
	c0.746,0.286,1.393,0.663,1.921,1.118c0.529,0.451,0.964,0.972,1.291,1.544c0.293,0.509,0.533,1.026,0.713,1.535L20.992,10.959z"/>
</svg>
