<?xml version="1.0" encoding="utf-8"?>
<!-- Generator: Adobe Illustrator 15.0.0, SVG Export Plug-In . SVG Version: 6.00 Build 0)  -->
<!DOCTYPE svg PUBLIC "-//W3C//DTD SVG 1.1//EN" "http://www.w3.org/Graphics/SVG/1.1/DTD/svg11.dtd" [
	<!ENTITY ns_extend "http://ns.adobe.com/Extensibility/1.0/">
	<!ENTITY ns_ai "http://ns.adobe.com/AdobeIllustrator/10.0/">
	<!ENTITY ns_graphs "http://ns.adobe.com/Graphs/1.0/">
	<!ENTITY ns_vars "http://ns.adobe.com/Variables/1.0/">
	<!ENTITY ns_imrep "http://ns.adobe.com/ImageReplacement/1.0/">
	<!ENTITY ns_sfw "http://ns.adobe.com/SaveForWeb/1.0/">
	<!ENTITY ns_custom "http://ns.adobe.com/GenericCustomNamespace/1.0/">
	<!ENTITY ns_adobe_xpath "http://ns.adobe.com/XPath/1.0/">
]>
<svg version="1.1" id="Layer_1" xmlns:x="&ns_extend;" xmlns:i="&ns_ai;" xmlns:graph="&ns_graphs;"
	 xmlns="http://www.w3.org/2000/svg" xmlns:xlink="http://www.w3.org/1999/xlink" x="0px" y="0px" width="222.017px"
	 height="120.26px" viewBox="0 0 222.017 120.26" enable-background="new 0 0 222.017 120.26" xml:space="preserve">
<metadata>
	<sfw  xmlns="&ns_sfw;">
		<slices></slices>
		<sliceSourceBounds  height="120.784" width="222.017" y="-121.209" x="0" bottomLeftOrigin="true"></sliceSourceBounds>
	</sfw>
</metadata>
<g id="COMICS">
	<g id="mumpitzwolke">
		<path fill="#FFFFFF" d="M220.384,119.442c-2.293-1.784-13.22-2.55-16.726-2.103c-3.508,0.446-11.062-0.445-7.015-5.289
			c4.046-4.844,6.204-3.314,10.656-6.756c4.451-3.441-2.563-5.354-8.229-7.316c-5.665-1.965-0.81-6.576,4.182-8.616
			c4.991-2.039,8.633-0.765,12.274-6.755c3.643-5.99-9.981-10.324-20.233-9.814c-10.251,0.51-19.425-7.902-7.688-15.868
			c11.734-7.966,10.521-16.326,10.521-16.326c-3.103-22.38-31.025-15.857-47.633-10.76c-16.607,5.099-15.901-2.677-19.004-14.147
			c-3.104-11.471-15.377-17.589-30.642-15.167C85.585,2.946,86.437,20.153,85.781,26.653c-0.655,6.5-15.127,6.882-19.983-0.255
			c-4.856-7.137-14.434-12.745-33.992-5.608c-19.56,7.138-9.442,27.403-3.44,35.307c6.003,7.901,9.51,10.069,8.7,15.677
			c-0.809,5.609-7.014,8.284-14.568,8.794c0,0-4.316-0.382-9.308,0c0,0-12.68,1.026-7.148,10.604
			c5.53,9.576,16.186,6.34,18.885,12.006c2.698,5.665-0.771,9.21-7.015,10.14c-23.269,3.461-17.199,6.507-17.199,6.507
			s13.894,0.002,13.557,0c0,0,196.402,0.893,202.742,0.893S222.678,121.226,220.384,119.442z M98.05,48.436
			c2.234-0.898,5.056-1.208,7.449-1.948c-0.133,3.042-0.406,6.547-0.114,9.627c3.124-0.521,7.087-0.602,9.971-1.605
			c0.945-4.422,0.214-9.24,0.229-14.211c2-0.406,4.406-0.406,6.303-0.917c1.758,9.226,2.398,19.669,3.666,29.568
			c-9.272-0.009-19.244-0.314-28.307-0.916C97.233,61.219,97.568,54.753,98.05,48.436z M83.945,101.611
			c-4.722-0.322-10.227-0.16-14.943,0.25c-0.114,2.987,0.207,6.593,0.498,9.586c-2.569,0.374-5.703,0.193-8.219,0.623
			c-1.583-10.412-3.207-20.784-4.731-31.254c8.935-0.524,19.078-1.567,28.017-0.872C84.366,87.171,84.355,94.591,83.945,101.611z
			 M81.088,59.667c-1.389,1.208-0.668,4.528-1.375,6.419c-2.215,1.375-5.377,1.805-8.252,2.521c-1.127-2.311-1.466-5.41-2.865-7.451
			c-1.104,2.145-1.142,5.354-1.834,7.908c-3.615-0.243-6.705-1.012-10.2-1.374c0.621-6.332,0.826-13.08,1.031-19.828
			c-2.717-0.578-5.94-0.405-9.054-0.343c-0.153-2.521-0.144-5.812-0.23-8.023c6.055-0.362,11.911-0.926,18.109-1.146
			c2.402,4.512,5.229,8.6,8.71,12.033c1.948-2.979,2.368-7.488,3.553-11.231c4.518-0.416,9.661,0.439,13.867-0.344
			c0.907,8.835,1.261,18.834,1.49,27.965c-2.898,1.036-5.998,1.873-8.71,3.094C83.609,66.773,82.893,62.675,81.088,59.667z
			 M88.957,112.693c0.55-8.52-0.161-17.345,0.747-25.277c2.75-0.28,6.014-0.053,8.966-0.125c1.421,8.125,1.588,17.506,2.988,25.65
			C97.513,112.771,93.196,112.771,88.957,112.693z M121.925,89.78c-0.466,7.727-1.785,15.634-2.489,23.536
			c-3.046-0.65-7.379-0.01-10.336-0.748c0.245-7.503,0.815-15.254,0.25-22.788c-1.598-0.561-4.416-0.425-6.351-0.249
			c-0.374-4.191-0.748-9.049-0.872-13.074c10.007,0.648,20.317-0.852,29.635-0.125c-0.076,4.461,0.168,8.793-0.125,12.825
			C128.493,89.486,124.912,88.878,121.925,89.78z M164.387,113.938c-10.725-0.919-22.451,0.296-33.372-0.497
			c0.426-3.85,0.845-7.705,1.37-11.457c4.494-2.854,9.365-5.328,13.447-8.592c-2.271-0.84-6.08-0.145-8.966-0.374
			c0.042-3.32-0.217-6.334-0.124-9.712c7.129-0.742,15.695-1.126,22.415-1.619c1.38-0.104,1.001,1.281,1.12,2.988
			c0.239,3.426-0.092,7.855,0,10.959c-2.796,3.18-5.972,5.981-8.717,9.215c3.177,0.16,8.707-0.488,12.951-0.498
			C164.604,107.681,164.314,110.628,164.387,113.938z M169.309,70.783c-3.633,0.188-8.496,0.723-12.464,0.574
			c-1.577-4.459-2.745-9.326-4.813-13.294c-0.971,1.48-0.836,1.193-1.146,1.834c-1.271,2.644-3.328,5.023-4.469,7.793
			c-1.396-2.808-2.59-5.817-4.241-8.368c-0.946,3.082-1.128,6.81-1.835,9.513c-3.414,0.521-6.609,1.26-10.658,1.146
			c0.195-9.216,0.363-18.501-0.688-26.934c5.115-0.119,9.732-0.735,14.211-1.49c1.324,2.879,2.201,6.203,3.896,8.71
			c1.959-2.703,2.256-7.068,3.668-10.315c4.312-0.588,9.16-0.306,13.066-1.146c0.906-0.196,0.558,7.875,0.571,9.398
			c0.059,6.614,0.125,12.086,0.23,18.222c1.345,0.449,3.132,0.459,4.927,0.459C169.563,68.951,169.563,68.951,169.309,70.783z"/>
		<path fill="#FFFFFF" d="M15.349,119.566"/>
	</g>
</g>
</svg>
