<?xml version="1.0" encoding="utf-8"?>
<!-- Generator: Adobe Illustrator 15.0.0, SVG Export Plug-In . SVG Version: 6.00 Build 0)  -->
<!DOCTYPE svg PUBLIC "-//W3C//DTD SVG 1.1//EN" "http://www.w3.org/Graphics/SVG/1.1/DTD/svg11.dtd" [
	<!ENTITY ns_extend "http://ns.adobe.com/Extensibility/1.0/">
	<!ENTITY ns_ai "http://ns.adobe.com/AdobeIllustrator/10.0/">
	<!ENTITY ns_graphs "http://ns.adobe.com/Graphs/1.0/">
	<!ENTITY ns_vars "http://ns.adobe.com/Variables/1.0/">
	<!ENTITY ns_imrep "http://ns.adobe.com/ImageReplacement/1.0/">
	<!ENTITY ns_sfw "http://ns.adobe.com/SaveForWeb/1.0/">
	<!ENTITY ns_custom "http://ns.adobe.com/GenericCustomNamespace/1.0/">
	<!ENTITY ns_adobe_xpath "http://ns.adobe.com/XPath/1.0/">
]>
<svg version="1.1" id="_x21__x21__xA0_Image_1_" xmlns:x="&ns_extend;" xmlns:i="&ns_ai;" xmlns:graph="&ns_graphs;"
	 xmlns="http://www.w3.org/2000/svg" xmlns:xlink="http://www.w3.org/1999/xlink" x="0px" y="0px" width="114.296px"
	 height="106.39px" viewBox="0 0 114.296 106.39" enable-background="new 0 0 114.296 106.39" xml:space="preserve">
<metadata>
	<sfw  xmlns="&ns_sfw;">
		<slices>
			<slice  sliceID="84035" y="513" x="535" height="107" width="114"></slice>
		</slices>
		<sliceSourceBounds  y="513" x="535" height="107" width="114" bottomLeftOrigin="true"></sliceSourceBounds>
	</sfw>
</metadata>
<g id="XMLID_2_">
	<g>
		<path fill="#EEA537" d="M113.892,61.26c0.47,6.15-0.149,10.95-1.68,15.36c-5.07,14.61-16.03,22.16-31.68,25.2
			c-17.301,3.36-32.61-0.98-45.12-9.12c-6.7,4.42-11.801,10.44-19.92,13.44c2.31-2.5,2.93-3.01,4.97-5.84
			c5.2-7.23,5.75-11.78,5.83-12.88c-1.83-1.72-4.101-3.73-6.24-5.52c-6.21-5.2-12.47-11.77-16.32-19.68
			c-2.56-5.27-3.91-12.04-3.359-20.4c0.8-12.21,8.02-24.4,15.6-30.72c8.12-6.76,19.5-10.16,33.36-10.8
			c7.31-0.34,17.01,1.04,23.52,4.08c14.47,6.76,28.021,20.63,34.32,33.84C110.132,44.43,113.252,52.95,113.892,61.26z M76.302,41.19
			c-4.13,0.32-11.77-1.06-15.42-0.45c0.05,9,0.28,22.29-0.51,32.76c3.069,0.53,8.109,0.68,11.68,0.72
			C73.142,63.55,75.191,53.64,76.302,41.19z M70.212,86.7c1.58-3.91-2-6.4-5.521-5.52c-2.14,0.54-3.779,1.8-3.6,4.56
			C61.352,89.74,68.592,90.72,70.212,86.7z M47.412,86.22c3.34-1.32,3.34-7.29,1.439-9.12c-1.069-1.02-2.729-1.27-4.56-0.96
			c-2.931,0.5-6.19,2.4-6,6C38.502,86.061,43.792,87.65,47.412,86.22z M48.372,68.22c-1.08-12.28-0.84-25.88-3.12-36.96
			c-6.38,0.5-12.45,1.31-17.76,2.88c3.34,12.18,6.06,24.98,9.84,36.72C40.812,69.78,44.742,69.15,48.372,68.22z"/>
		<path fill="#FFFFFF" d="M60.882,40.74c3.65-0.61,11.29,0.77,15.42,0.45c-1.11,12.45-3.16,22.36-4.25,33.03
			c-3.57-0.04-8.61-0.19-11.68-0.72C61.162,63.03,60.932,49.74,60.882,40.74z"/>
		<path fill="#FFFFFF" d="M64.691,81.18c3.521-0.88,7.101,1.61,5.521,5.52c-1.62,4.02-8.86,3.04-9.12-0.96
			C60.912,82.98,62.552,81.72,64.691,81.18z"/>
		<path fill="#FFFFFF" d="M48.852,77.101c1.9,1.83,1.9,7.8-1.439,9.12c-3.62,1.43-8.91-0.16-9.12-4.08c-0.19-3.6,3.069-5.5,6-6
			C46.122,75.831,47.782,76.081,48.852,77.101z"/>
		<path fill="#FFFFFF" d="M45.252,31.26c2.28,11.08,2.04,24.68,3.12,36.96c-3.63,0.93-7.561,1.56-11.04,2.64
			c-3.78-11.74-6.5-24.54-9.84-36.72C32.802,32.57,38.872,31.76,45.252,31.26z"/>
	</g>
	<g>
	</g>
</g>
</svg>
