<?xml version="1.0" encoding="utf-8"?>
<!-- Generator: Adobe Illustrator 16.0.0, SVG Export Plug-In . SVG Version: 6.00 Build 0)  -->
<!DOCTYPE svg PUBLIC "-//W3C//DTD SVG 1.1//EN" "http://www.w3.org/Graphics/SVG/1.1/DTD/svg11.dtd">
<svg version="1.1" id="Layer_1" xmlns="http://www.w3.org/2000/svg" xmlns:xlink="http://www.w3.org/1999/xlink" x="0px" y="0px"
	 width="134.848px" height="28.282px" viewBox="0 0 134.848 28.282" enable-background="new 0 0 134.848 28.282"
	 xml:space="preserve">
<g id="ORIGINAL">
	<path fill="#FFFFFF" d="M0,0v28.282h134.848V0H0z M3.427,13.682c0.805-3.377,4.59-5.822,8.69-6.149
		c4.752-0.38,8.77,2.127,9.357,6.149C23.088,24.702,0.71,25.077,3.427,13.682z M38.187,11.677c-0.332,1.528-2.188,2.433-3.743,3.074
		c1.271,2.508,2.461,4.756,3.208,7.487c-1.496,0.421-3.071,0.761-4.945,0.802c-1.235-1.305-1.87-3.211-3.076-4.547
		c-0.289,0.648-0.062,1.812-0.134,2.676c-1.035,0.205-2.708,0.205-3.743,0c-0.294-5.188-2.054-8.911-1.605-14.84
		C28.189,1.782,39.565,5.328,38.187,11.677z M41.797,20.633c-0.355-4.545-0.104-9.292-0.269-13.771
		c1.402-0.336,3.04-0.437,4.547-0.669c0.947,2.926,1.005,6.652,1.336,10.162c0.146,1.551,0.379,3.08,0.534,4.546
		C46.079,20.629,43.983,20.584,41.797,20.633z M64.391,22.105c-1.58,1.36-5.059,2.097-7.888,1.204
		c-2.411-0.764-5.488-4.172-5.748-6.686c-0.371-3.565,1.732-8.019,4.411-9.626c2.606-1.567,6.753-1.578,10.161-0.268
		c-0.086,1.741-0.252,3.403-0.401,5.081c-1.916-0.16-3.768-1.277-5.882-0.802c-1.383,0.312-2.406,1.237-2.941,2.407
		c-0.818,2.554-0.184,5.214,1.604,6.149c3.315,1.349,6.743-2.192,3.208-3.342c-0.752-0.244-1.337-0.284-1.906-0.234
		c0.07-0.28-0.236-1.284,0.017-1.403c0.762-0.354,2.333-0.195,3.276-0.172c1.453,0.034,2.982,0.371,3.693,0.875
		C66.394,18.215,65.866,20.833,64.391,22.105z M59.578,19.165c-0.018,0.295-0.568,0.058-0.803,0.133
		C58.779,18.93,59.406,18.98,59.578,19.165z M69.605,21.303c0.205-4.211,0.562-9.42,1.203-13.638c0.766-0.261,1.97-0.08,2.941-0.133
		c0.827,4.253,1.372,8.788,1.872,13.369C73.648,21.067,71.598,21.157,69.605,21.303z M96.076,21.168
		c-2.297,0.512-5.129,0.207-7.221-0.268c-0.757-1.65-1.347-2.195-2.271-3.677c-0.265-0.533-0.893-1.403-1.383-1.048
		c-0.697,0.508,0.089,3.029-0.222,3.922c-1.691,0.181-3.366,0.379-4.947,0.669c-0.315-4.363-0.409-8.948-0.937-13.103
		c1.381-1.048,3.543-0.846,4.946-1.471c0.813-0.36,2.767,2.374,3.343,3.21c0.969,1.404,1.584,2.946,2.675,3.61
		c0.935-1.517,0.778-4.124,1.47-5.884c1.665-0.207,3.615-0.128,5.35-0.267C96.999,12.02,96.498,16.554,96.076,21.168z
		 M102.895,22.239c0.42-0.338,1.562,0.045,2.006-0.27C104.654,22.495,103.446,22.424,102.895,22.239z M110.649,22.105
		c-0.675-1.239-0.849-2.983-1.737-4.011c-1.279-0.076-2.171,0.234-3.476,0.134c-0.713,0.758-0.961,1.981-1.069,3.342
		c-1.464,0.274-3.405,0.071-5.08,0.134c1.04-5.287,2.778-9.875,4.276-14.706c2.352-0.458,4.854-0.763,7.621-0.803
		c1.821,5.309,3.98,10.28,5.215,16.179C114.351,22.415,112.598,22.163,110.649,22.105z M116.531,20.099
		c0.262,0.407,0.445,0.894,0.401,1.604C116.993,22.409,116.539,20.614,116.531,20.099z M119.473,21.704
		c-0.011-5.447,0.352-10.522,1.337-14.974c1.131-0.231,3.007-0.193,4.146,0c0,3.699,0,7.399,0,11.097
		c1.772,0.231,3.565,0.444,5.48,0.534c0.282,1.054,0.643,2.032,0.669,3.343C127.446,22.053,123.125,22.086,119.473,21.704z"/>
</g>
<g id="Layer_1_1_">
</g>
<g id="DIGITAL" display="none">
	<path display="inline" fill="#FFFFFF" d="M0,0v28.282h134.848V0H0z M23.083,17.698c-1.234,1.831-4.95,4.184-7.08,4.654
		c-2.195,0.484-4.353-0.124-6.558-0.424C8.38,16.995,7.641,10.663,7.177,4.722c4.398-2.286,10.645-0.243,13.477,2.465
		C22.539,8.991,25.244,14.487,23.083,17.698z M35.04,22.002c-1.712,0.451-4.519,0.156-6.432-0.021
		c0.677-5.284,0.979-10.963,1.727-16.174c1.262-0.323,2.63-0.535,4.168-0.57c0.968,1.518,0.365,3.641,0.4,5.637
		C34.969,14.467,35.088,18.407,35.04,22.002z M52.18,22.543c-0.72,0.318-1.499,0.779-2.031,0.891
		c-6.439,1.352-10.983-3.215-11.316-8.713c-0.351-5.799,2.351-12.064,9.245-11.169c1.319,0.171,2.167,0.765,3.854,1.298
		c-0.088,1.655-0.039,3.178,0.022,4.689c-5.89-1.691-10.503,3.732-7.152,7.736c0.643,0.767,2.634,1.704,4.114,1.706
		c2.713,0.005,4.092-2.922,0.886-3.462c0.018-0.761,0.036-1.518,0.055-2.277c1.914-0.264,3.721,0.148,5.76,0.137
		C56.988,17.915,55.36,21.138,52.18,22.543z M61.331,20.885c-0.261-4.83,0.104-8,0.179-13.127c1.336-0.336,3.2-0.453,4.558-0.025
		c0.9,4.115,1.303,9.4,1.687,13.575C65.72,21.066,63.298,21.194,61.331,20.885z M80.755,9.959
		c-0.231,3.509-0.551,6.926-0.523,10.708c-1.998,0.071-3.552-0.278-5.213-0.525c-0.281-3.223-0.24-6.754-0.294-10.191
		c-0.864-0.354-2.257-0.204-3.204-0.479c-0.105-1.513-0.483-2.768-0.294-4.563c3.991-0.83,9.533-1.09,14.082-0.468
		c0.376,1.299,0.194,3.129,0.29,4.698C83.992,9.419,81.931,9.224,80.755,9.959z M100.459,21.014c-0.78-1.48-1.018-3.48-1.62-5.131
		c-1.425-0.311-3.285,0.004-4.563,0.293c-0.924,1.503-1.562,3.305-2.003,5.312c-1.801,0.061-3.179-0.285-4.952-0.252
		c1.094-5.719,3.62-11.12,5.094-16.897c2.616-0.203,6.014-0.255,8.578-0.063c2.027,5.003,2.904,11.103,4.018,16.979
		C103.447,21.219,102.116,20.961,100.459,21.014z M111.138,22.745c0.069-0.185,1.214-0.297,1.067,0.158
		C111.707,22.985,111.637,22.661,111.138,22.745z M111.02,22.07c-0.028-5.795,1.002-10.479,2.104-15.092
		c1.483-0.502,3.011-0.071,4.554,0.108c0.194,3.085,0.367,6.193,0.582,9.26c2.215,0.287,4.298,0.703,6.27,1.222
		c0.303,1.283,0.171,2.978,0.435,4.298C120.376,21.94,115.554,22.389,111.02,22.07z"/>
</g>
<g id="G.DESIGN" display="none">
	<g display="inline">
		<path d="M19.805,7.797c-0.742,1.645-2.134,2.639-2.791,4.368c-3.029-1.677-8.137,0.072-7.765,4.003
			c0.19,2.016,2.399,3.996,4.487,4.002c0.815,0.004,2.523-0.34,2.428-2.062c-0.298-0.714-1.597-0.428-2.549-0.483
			c-0.248-0.399-0.064-1.23-0.121-1.822c2.221-0.284,4.421-0.592,6.916-0.605c1.529,5.807-4.019,10.145-10.07,8.25
			c-3.56-1.113-6.868-6.156-5.824-10.917C5.609,7.548,12.479,2.397,18.347,6.22C18.705,6.875,19.243,7.348,19.805,7.797z"/>
		<path d="M77.796,9.617c-0.696,0.112-1.45,0.168-1.941,0.486c-0.396-0.85-0.568-1.379-1.334-1.578
			c-1.424-0.367-1.937,0.73-1.82,1.699c0.127,1.049,1.328,1.238,2.912,1.941c1.708,0.757,4.226,2.483,4.611,4.367
			c0.473,2.317-0.7,5.033-2.063,5.943c-0.391,0.261-2.247,1.238-2.669,1.335c-2.786,0.627-6.28-0.582-7.887-1.819
			c-0.591-0.455-2.181-2.242-1.699-2.548c0.91-0.575,2.442-1.623,4.006-2.426c0.165,1.42,3.984,2.978,4.365,0.485
			c0.519-3.37-5.64-3.159-6.915-5.096c-1.722-2.619,0.582-6.572,3.154-7.279C74.103,4.143,77.337,5.785,77.796,9.617z"/>
		<path d="M60.083,6.099c0.149,0.7,0.2,1.498,0.363,2.183c-1.584,0.761-4.135,0.556-5.944,1.092
			c-0.088,1.059,0.134,1.808,0.365,2.547c1.323,0.051,2.868-0.12,4.003,0.122c0.146,0.571,0.407,1.573,0.242,2.062
			c-0.829,0.425-2.148,0.357-3.396,0.363c-0.284,0.539,0.061,1.361,0.122,1.941c2.061,0.498,4.557-0.234,6.916,0.123
			c0.093,1.605,0.574,2.821,0.484,4.608c-3.689,0.396-7.975,0.194-12.011,0.243c-0.735-5.129-1.347-10.381-1.819-15.771
			C53.205,5.132,56.51,5.974,60.083,6.099z"/>
		<path d="M103.758,7.919c-0.755,1.307-2.247,1.878-2.911,3.276c-1.458-0.908-3.166,0.259-3.762,1.334
			c-0.701,2.921,2.306,5.837,4.854,4.974c0.976-0.33,1.493-1.59,0.606-2.426c-0.608-0.216-1.146-0.035-1.698,0.121
			c-0.035-0.412-0.194-0.697-0.122-1.214c1.521-0.219,3.018-0.461,4.854-0.364c1.955,4.98-2.122,9.511-6.796,8.251
			c-1.265-0.343-3.572-2.067-4.609-3.641c-1.916-2.911-1.735-8.16,0.606-10.678C96.718,5.472,101.718,4.949,103.758,7.919z"/>
		<path d="M34.12,21.506c-0.502-4.512-0.432-9.598-0.607-14.438c5.788-1.898,11.279,1.669,12.012,6.673
			C46.477,20.252,40.078,23.338,34.12,21.506z"/>
		<path d="M120.744,13.864c0.859-1.89,1.076-4.421,1.696-6.552c0.646,0,1.294,0,1.941,0c0.35,4.825,1.322,9.03,1.456,14.073
			c-2.195,0.423-5.042-0.166-7.401,0.121c-1.08-1.752-1.958-3.701-3.519-4.975c-0.594,1.225-0.445,3.194-0.606,4.854
			c-1.404-0.213-3.145-0.09-4.73-0.121c-0.527-4.592,0.487-9.271,0-13.831c1.324-0.452,3.407-1.203,4.853-0.849
			c1.107,0.271,2.428,2.438,3.275,3.519C118.874,11.584,119.667,13.114,120.744,13.864z"/>
		<path d="M87.259,7.676c1.35,4.03,1.661,9.095,2.427,13.709c-2.21-0.107-3.943,0.263-5.824,0.486
			c-0.224-4.705,0.159-9.659,0.242-14.438C85.259,7.412,86.357,7.446,87.259,7.676z"/>
		<path d="M49.164,10.224c0.425,0.141,0.265,0.867,0.363,1.334C49.255,11.266,49.271,10.683,49.164,10.224z"/>
		<path d="M125.354,11.315c0.181,0.184,0.194,0.533,0.241,0.85C125.134,12.262,125.442,11.591,125.354,11.315z"/>
		<path d="M29.146,17.625c0,1.172,0,2.346,0,3.517c-1.559-0.031-3.07,0.041-4.609-0.241c-0.053-1.229,0.216-2.131,0.122-3.396
			C26.144,17.393,27.91,16.985,29.146,17.625z"/>
	</g>
</g>
<g id="VIDEOS" display="none">
	<g display="inline">
		<path d="M119.359,8.1c-0.76,0.794-2.956,1.154-3.945,1.718c-0.648-0.407-1.58-2.105-3.438-1.718
			c-1.34,0.278-1.508,2.412-0.491,3.191c0.945,0.726,2.788,0.668,4.297,1.228c1.809,0.67,4.9,2.121,5.052,4.543
			c0.205,3.295-3.256,5.994-6.523,6.506c-4.463,0.698-7.938-1.212-9.575-4.174c0.521-0.911,1.189-1.675,2.086-2.21
			c0.066,0.968,5.167,3.529,5.771,1.105c0.569-2.295-4.44-3.519-5.401-4.543c-0.979-1.042-1.722-3.598-1.229-5.77
			c0.659-2.901,5.978-5.375,9.698-3.315C117.045,5.43,118.604,6.704,119.359,8.1z"/>
		<path d="M31.072,5.399c0.275,6.455-0.592,12.829-1.228,18.783c-3.395-0.043-6.128-0.747-9.698-0.614
			c-1.961-1.896-3.389-4.296-4.911-6.63c-1.518-2.327-2.692-5.014-3.683-7.856c1.629-0.581,3.234-1.185,4.788-1.841
			c2.634,3.381,4.299,7.73,6.997,11.048c0.664-0.526,0.334-1.586,0.369-2.332c0.138-2.954,0.377-7.164,0.49-10.312
			C26.298,5.372,28.69,5.39,31.072,5.399z"/>
		<path d="M50.469,22.094c-0.686-5.084-1.595-9.943-2.21-15.1c3.454-0.742,8.354-0.491,11.294,1.596
			c2.771,1.966,5.115,7.905,2.455,11.418C60.017,22.64,54.725,22.95,50.469,22.094z"/>
		<path d="M80.179,7.486c0.028,0.994,0.234,1.81,0.245,2.823c-1.615,0.595-3.582,0.838-5.279,1.351
			c-0.036,0.732,0.051,1.341,0.245,1.842c0.819,0,1.637,0,2.456,0c0.254,0.44,0.063,1.327,0.123,1.963
			c-0.815,0.084-1.6,0.203-2.21,0.492c-0.013,0.502-0.024,1.006,0.122,1.351c1.642,0.2,3.527,0.155,5.279,0.245
			c0.34,1.582,0.264,3.582,0.491,5.277c-3.617,0.98-8.043,0.196-11.664-0.244c0.229-4.849-0.602-10.618,0.369-15.224
			C73.276,6.629,77.214,7.143,80.179,7.486z"/>
		<path d="M93.332,7.977c4.431-0.143,8.931,2.307,7.733,8.104c-0.63,3.049-5.854,6.797-10.558,4.91
			c-0.709-0.285-2.094-1.611-2.578-2.334c-1.82-2.709-1.437-7.749,0.736-9.207C89.748,8.725,91.448,8.676,93.332,7.977z"/>
		<path d="M41.875,8.713c0.373,4.271,0.27,9.267,0.491,13.995c-2.122,0.305-4.346,0.024-6.385-0.123
			c-0.149-4.896,0.247-9.246,0.737-13.503C38.406,8.927,40.016,8.696,41.875,8.713z"/>
		<path d="M48.505,13.256c0.44,0.172,0.244,0.983,0.369,1.473C48.602,14.386,48.573,13.802,48.505,13.256z"/>
		<path d="M14.621,17.184c0.266-0.258,0.388,0.67,0.736,0.736C14.974,18.297,14.824,17.396,14.621,17.184z"/>
	</g>
</g>
</svg>
