<?xml version="1.0" encoding="utf-8"?>
<!-- Generator: Adobe Illustrator 15.0.0, SVG Export Plug-In . SVG Version: 6.00 Build 0)  -->
<!DOCTYPE svg PUBLIC "-//W3C//DTD SVG 1.1//EN" "http://www.w3.org/Graphics/SVG/1.1/DTD/svg11.dtd" [
	<!ENTITY ns_extend "http://ns.adobe.com/Extensibility/1.0/">
	<!ENTITY ns_ai "http://ns.adobe.com/AdobeIllustrator/10.0/">
	<!ENTITY ns_graphs "http://ns.adobe.com/Graphs/1.0/">
	<!ENTITY ns_vars "http://ns.adobe.com/Variables/1.0/">
	<!ENTITY ns_imrep "http://ns.adobe.com/ImageReplacement/1.0/">
	<!ENTITY ns_sfw "http://ns.adobe.com/SaveForWeb/1.0/">
	<!ENTITY ns_custom "http://ns.adobe.com/GenericCustomNamespace/1.0/">
	<!ENTITY ns_adobe_xpath "http://ns.adobe.com/XPath/1.0/">
]>
<svg version="1.1" id="Ebene_2_xA0_Image_1_" xmlns:x="&ns_extend;" xmlns:i="&ns_ai;" xmlns:graph="&ns_graphs;"
	 xmlns="http://www.w3.org/2000/svg" xmlns:xlink="http://www.w3.org/1999/xlink" x="0px" y="0px" width="685px" height="147px"
	 viewBox="0 0 685 147" enable-background="new 0 0 685 147" xml:space="preserve">
<metadata>
	<sfw  xmlns="&ns_sfw;">
		<slices>
			<slice  sliceID="16807" y="398" x="-61" height="147" width="685"></slice>
		</slices>
		<sliceSourceBounds  y="398" x="-61" height="147" width="685" bottomLeftOrigin="true"></sliceSourceBounds>
	</sfw>
</metadata>
<g id="XMLID_4_">
	<g>
		<path fill="#389BA1" d="M651.04,126.56c18.4-1.44,35.34,1.98,32.4,19.44c-7.011,1.89-11.671-2.4-18.48-3.12
			c-9.16-0.98-20.5-0.11-30.479-0.96c-10.131-0.86-19.58-1.2-28.801,0.72c-9,1.87-19.01,2.43-28.8,1.2
			c-9.62-1.21-18.88-3.84-28.32-2.64c-19.25,2.44-40.869-0.23-61.199,1.2c-10.38,0.73-20.851-0.08-30.96-0.48
			c-10.12-0.4-19.42,1.92-28.801,2.64c-10.97,0.84-20.47-2.36-32.159-3.6c-21.75-2.3-45.95-1.81-68.88-1.44
			c-5.95,0.09-11.78,0.69-17.28,0.48c-5.44-0.2-10.45-1.99-15.6-2.16c-5.72-0.19-10.97,1.65-16.8,2.64
			c-17.88,3.05-37.37-1.44-54.72-1.44c-5.76,0-11.5,1.11-17.52,1.92c-17.56,2.35-37.82,1.35-55.92,0.72
			c-12.27-0.42-25.15,0.3-37.2,0.48c-12.38,0.19-25.01-0.8-37.68,0.24c-10.87,0.89-22.95,2.49-36,1.92
			c-5.82-0.26-11.65-0.71-18.48-0.24c-6.37,0.43-15.2,1.86-17.28-1.2c-3.06-4.5,1.78-10.22,4.32-11.76
			c4.44-2.69,12.64-3.59,22.56-3.12c4.92,0.23,20.35,3.85,21.36-1.2c1.21-6.07-10.69-7.42-7.44-15.6c2.79-7.02,27.65,0.7,28.56-9.12
			c0.83-8.93-18.52-14-18.72-24c-0.12-6.37,5.9-10.07,10.8-12c9.52-3.75,20.31-0.48,25.68-7.44c4.09-5.3,6.49-11.8,9.12-17.76
			c2.05-4.65,6.67-12.69,12.72-13.92c9.48-1.93,9.93,7.49,14.88,10.08c1.91,1,5.16,1.38,8.16,1.2
			c19.27-1.12,26.03-18.07,48.24-17.04c12.43,0.57,18.55,10.34,32.4,7.2c2.69-0.61,4.64-2.22,7.44-2.64
			c8.45-1.25,13.29,4.65,19.44,0.96c5.09-3.06,3.61-11.48,6.24-17.52c2.18-5.02,7.29-8.29,14.4-8.64
			c7.14-0.35,17.63,1.86,23.04,5.76c14.61,10.52-12.19,33.39,2.88,42.24c5.48,3.22,18.31,4.63,26.16,4.32
			c18.85-0.75,34.82-5.54,50.16-10.56c8.79-2.88,15.38-8.99,24.24-8.88c10.57,0.13,18.42,6.32,25.92,10.32
			c4.681,2.49,15.851,6.66,19.44,0.72c2.17-3.6,1.47-9.71,2.16-14.64c0.72-5.13,2.18-10.92,5.52-13.68
			c4.55-3.76,11.08-4.57,17.521-6.24c3.34-0.87,5.95-1.58,9.6-2.16c2.16-0.34,8.24-1.71,10.561,0.24
			c4.659,3.92-3.53,11.81,0.72,15.36c4.3,3.6,10.83-3.56,16.08-1.2c5.84,2.63,3.16,17.72,10.319,18.48
			c10.32,1.1,10.631-20.7,18.48-24.48c7.39-3.56,17.14-0.17,24.72,2.4c4.69,1.59,12.96,2.03,15.601,4.56
			c7.37,7.07-4.73,20.3-0.96,30c1.27,3.28,4.56,4.28,7.439,5.76c13.851,1.71,16.58-11.86,29.04-9.12
			c10.271,2.26,6.98,15.21,12.72,23.04c2.681,3.66,9.41,5.5,9.601,10.56c0.189,5.06-4.771,8.62-8.16,11.28
			c-1.17,0.92-10.17,9.24-4.56,12c5.22,2.56,9.449-6.07,12.96-7.92c7.34-3.86,15.279,0.63,12.72,10.32
			c-1.101,4.17-6.24,8.1-5.76,13.2C631.09,129.64,644.54,127.07,651.04,126.56z M580,131.84c-0.14-6.38,0.42-12.06,0.24-18.48
			c-8.181,0.02-18.84,1.27-24.96,0.96c5.29-6.23,11.41-11.63,16.8-17.76c-0.18-5.98,0.46-14.52,0-21.12
			c-0.23-3.29,0.5-5.96-2.16-5.76c-12.95,0.95-29.46,1.69-43.2,3.12c-0.18,6.51,0.32,12.32,0.24,18.72
			c5.56,0.44,12.9-0.9,17.28,0.72c-7.87,6.29-17.26,11.06-25.92,16.56c-1.011,7.23-1.82,14.66-2.641,22.08
			C536.73,132.41,559.33,130.07,580,131.84z M516.88,84.08c0.561-7.77,0.09-16.12,0.24-24.72c-17.96-1.4-37.83,1.49-57.12,0.24
			c0.24,7.76,0.96,17.12,1.68,25.2c3.73-0.34,9.16-0.6,12.24,0.48c1.09,14.52-0.01,29.46-0.479,43.92
			c5.699,1.42,14.05,0.19,19.92,1.44c1.359-15.23,3.899-30.47,4.8-45.36C503.92,83.54,510.82,84.71,516.88,84.08z M455.2,129.92
			c-2.7-15.7-3.021-33.78-5.76-49.44c-5.69,0.14-11.98-0.3-17.28,0.24c-1.75,15.29-0.38,32.3-1.44,48.72
			C438.89,129.59,447.21,129.59,455.2,129.92z M424.96,108.08c0.79-13.53,0.81-27.83,1.2-41.76c-17.23-1.34-36.78,0.67-54,1.68
			c2.939,20.18,6.07,40.17,9.12,60.24c4.85-0.83,10.89-0.48,15.84-1.2c-0.561-5.77-1.18-12.72-0.96-18.48
			C405.25,107.77,415.86,107.46,424.96,108.08z M370.72,129.44c1.65-2.35,2.9-5.1,3.84-8.16c-3.76,0-7.5-0.02-10.319-0.96
			c-0.22-12.85-0.36-24.31-0.48-38.16c-0.03-3.19,0.7-20.09-1.2-19.68c-8.18,1.76-18.33,1.17-27.36,2.4
			c-2.96,6.8-3.58,15.94-7.68,21.6c-3.55-5.25-5.39-12.21-8.16-18.24c-9.38,1.58-19.05,2.87-29.76,3.12
			c2.2,17.66,1.85,37.1,1.44,56.4c8.48,0.24,15.17-1.31,22.32-2.4c1.48-5.66,1.86-13.47,3.84-19.92c3.46,5.34,5.96,11.64,8.88,17.52
			c2.39-5.8,6.7-10.78,9.36-16.32c0.65-1.34,0.37-0.74,2.4-3.84c4.33,8.31,6.78,18.5,10.08,27.84
			C356.23,130.95,363.11,129.83,370.72,129.44z M282.4,125.6c-2.66-20.73-4-42.6-7.68-61.92c-3.97,1.07-9.01,1.07-13.2,1.92
			c-0.03,10.41,1.5,20.5-0.48,29.76c-6.04,2.1-14.34,2.27-20.88,3.36c-0.61-6.45-0.04-13.79,0.24-20.16
			c-5.01,1.55-10.92,2.2-15.6,4.08c-1.01,13.23-1.71,26.77-1.68,41.04C242.1,124.94,262.98,125.58,282.4,125.6z M216.4,121.04
			c-0.48-19.12-1.22-40.06-3.12-58.56c-8.81,1.64-19.58-0.15-29.04,0.72c-2.48,7.84-3.36,17.28-7.44,23.52
			c-7.29-7.19-13.21-15.75-18.24-25.2c-12.98,0.46-25.24,1.64-37.92,2.4c0.18,4.63,0.16,11.52,0.48,16.8
			c6.52-0.13,13.27-0.49,18.96,0.72c-0.43,14.13-0.86,28.26-2.16,41.52c7.32,0.76,13.79,2.37,21.36,2.88
			c1.45-5.35,1.53-12.07,3.84-16.56c2.93,4.27,3.64,10.76,6,15.6c6.02-1.5,12.64-2.4,17.28-5.28c1.48-3.96-0.03-10.91,2.88-13.44
			c3.78,6.3,5.28,14.88,8.88,21.36C203.84,124.96,210.33,123.21,216.4,121.04z"/>
	</g>
	<g>
	</g>
</g>
<rect id="_x3C_Slice_x3E_" fill="none" width="685" height="147"/>
</svg>
