<?xml version="1.0" encoding="utf-8"?>
<!-- Generator: Adobe Illustrator 15.0.0, SVG Export Plug-In . SVG Version: 6.00 Build 0)  -->
<!DOCTYPE svg PUBLIC "-//W3C//DTD SVG 1.1//EN" "http://www.w3.org/Graphics/SVG/1.1/DTD/svg11.dtd" [
	<!ENTITY ns_extend "http://ns.adobe.com/Extensibility/1.0/">
	<!ENTITY ns_ai "http://ns.adobe.com/AdobeIllustrator/10.0/">
	<!ENTITY ns_graphs "http://ns.adobe.com/Graphs/1.0/">
	<!ENTITY ns_vars "http://ns.adobe.com/Variables/1.0/">
	<!ENTITY ns_imrep "http://ns.adobe.com/ImageReplacement/1.0/">
	<!ENTITY ns_sfw "http://ns.adobe.com/SaveForWeb/1.0/">
	<!ENTITY ns_custom "http://ns.adobe.com/GenericCustomNamespace/1.0/">
	<!ENTITY ns_adobe_xpath "http://ns.adobe.com/XPath/1.0/">
]>
<svg version="1.1" id="_x33__DIGITAL" xmlns:x="&ns_extend;" xmlns:i="&ns_ai;" xmlns:graph="&ns_graphs;"
	 xmlns="http://www.w3.org/2000/svg" xmlns:xlink="http://www.w3.org/1999/xlink" x="0px" y="0px" width="60.96px"
	 height="88.632px" viewBox="0 0 60.96 88.632" enable-background="new 0 0 60.96 88.632" xml:space="preserve">
<metadata>
	<sfw  xmlns="&ns_sfw;">
		<slices>
			<slice  sliceID="268912" y="293" x="290" height="90" width="62"></slice>
		</slices>
		<sliceSourceBounds  y="293" x="290" height="90" width="62" bottomLeftOrigin="true"></sliceSourceBounds>
	</sfw>
</metadata>
<path fill="#898989" d="M46.311,0c0,0-31.292,9-30.417,9s-7.5,16.75-7.5,16.75l4.708,14.844l-8.458-0.969
	c0.375,0.125,6.125,4.205,6.125,4.205L0,61.5c0,0,20.769,27.641,21.144,27.125s28.875-16.208,28.875-16.208L60.96,37.75L46.311,0z
	 M42.894,22.709h3.417v2.333h-3.417V22.709z M23.311,19.375l7.169,3.084l1.664,7.333l-10.417,2.333l-3-9.916L23.311,19.375z
	 M23.978,57.609l-4,0.225l-1.084,9.833l-2.583-0.708l0.833-9.375c-0.125,0.125-3.833-0.25-3.833-0.25l-0.208-3.458l11.208,0.416
	L23.978,57.609z M24.311,36.875h8.114c0,0-0.114,3.584-0.281,3.75l-4-0.166l0.417,4.916l3.583-0.156V43.83h-1.664v-0.746h3.581
	v6.208h-9.75V36.875z M34.311,72.417l-2.167-0.208l0.375-6.042l-4.208-1.083l-1.583,3.792l-1.709-0.417l3.292-12.167l7.708,1.167
	L34.311,72.417z M36.061,28.375c0-0.25-2-11.916-2-11.916l3.5-0.584l1.5,11.75L36.061,28.375z M39.487,36.656h3.406l-0.156,10.406
	l-3.25-0.219V36.656z M46.603,62.959l-6.125,0.917v-8.917h2.625l-0.209,6.417l3.709,0.083V62.959z M47.112,42.562v-1.969
	l3.531,0.156l0.188,1.812H47.112z"/>
</svg>
