<?xml version="1.0" encoding="utf-8"?>
<!-- Generator: Adobe Illustrator 15.0.0, SVG Export Plug-In . SVG Version: 6.00 Build 0)  -->
<!DOCTYPE svg PUBLIC "-//W3C//DTD SVG 1.1//EN" "http://www.w3.org/Graphics/SVG/1.1/DTD/svg11.dtd" [
	<!ENTITY ns_extend "http://ns.adobe.com/Extensibility/1.0/">
	<!ENTITY ns_ai "http://ns.adobe.com/AdobeIllustrator/10.0/">
	<!ENTITY ns_graphs "http://ns.adobe.com/Graphs/1.0/">
	<!ENTITY ns_vars "http://ns.adobe.com/Variables/1.0/">
	<!ENTITY ns_imrep "http://ns.adobe.com/ImageReplacement/1.0/">
	<!ENTITY ns_sfw "http://ns.adobe.com/SaveForWeb/1.0/">
	<!ENTITY ns_custom "http://ns.adobe.com/GenericCustomNamespace/1.0/">
	<!ENTITY ns_adobe_xpath "http://ns.adobe.com/XPath/1.0/">
]>
<svg version="1.1" id="Ebene_2_xA0_Image_1_" xmlns:x="&ns_extend;" xmlns:i="&ns_ai;" xmlns:graph="&ns_graphs;"
	 xmlns="http://www.w3.org/2000/svg" xmlns:xlink="http://www.w3.org/1999/xlink" x="0px" y="0px" width="685px" height="147px"
	 viewBox="0 0 685 147" enable-background="new 0 0 685 147" xml:space="preserve">
<metadata>
	<sfw  xmlns="&ns_sfw;">
		<slices></slices>
		<sliceSourceBounds  height="145.953" width="682.675" y="-22.477" x="-241.901" bottomLeftOrigin="true"></sliceSourceBounds>
	</sfw>
</metadata>
<g>
	<path fill-rule="evenodd" clip-rule="evenodd" fill="#FFFFFF" d="M655.945,126.299c0.15-4.232-0.209-8.975,0.146-13
		c0.844-0.803,2.118-1.175,2.615-2.324c-0.759-2.534-1.315-5.271-1.743-8.135c-0.146,0-0.291,0-0.436,0
		c-0.306,1.438-0.357,3.129-1.162,4.067c-0.964-0.199-2.181-0.145-3.342-0.146c-0.452-1-0.293-2.611-1.307-3.051
		c-1.674,5.771-1.407,11.51-5.375,14.672c-1.131,0.901-2.284,1.412-3.051,2.615c-1.053,1.65-1.188,3.701-2.034,5.52
		c-2.844-0.515-6.021-3.384-4.067-6.827c1.672-2.946,7.755-3.383,8.28-8.426c0.107-1.027,0.172-1.939-0.29-3.341
		c-0.397-1.204-2.855-5.059-4.504-2.905c0.497,2.363,2.486,2.811,2.615,5.084c0.35,6.17-8.531,6.037-8.426,12.202
		c0.051,2.958,1.971,4.026,4.139,5.026c-4.017-0.293-7.272-1.548-7.602-5.091c-0.48-5.1,4.659-9.03,5.76-13.2
		c2.559-9.69-5.38-14.181-12.72-10.32c-3.512,1.851-7.74,10.48-12.96,7.921c-5.61-2.761,3.39-11.08,4.56-12
		c3.389-2.66,8.349-6.221,8.16-11.281c-0.191-5.06-6.92-6.899-9.602-10.56c-5.007-6.831-3.144-17.558-9.406-21.684
		c0.272-3.078,0.599-6.102,1.345-8.707c4.802,0.175,9.639-0.8,12.492-3.051c-3.158-3.039-5.26-7.136-6.682-11.912
		c1.404-0.242,3.48,0.188,4.067-0.872c-3.483-1.881-5.752-6.157-6.102-11.041c-0.063-0.896,0.419-2.076-0.436-2.905
		c-0.097,0-0.193,0-0.291,0c0.007,0.2-0.068,0.319-0.145,0.436c-1.032,4.827-2.884,9.13-5.811,12.057
		c-1.57,1.569-3.638,2.488-5.375,3.922c1.05,0.601,3.108,0.624,4.503,0.436c-1.986,3.146-3.632,6.634-6.827,8.57
		c1.694,2.373,5.028,3.106,7.989,4.213c-0.194,2.924-1.258,5.169-1.944,7.522c-0.034-0.008-0.064-0.019-0.099-0.026
		c-4.278-0.941-7.41,0.042-10.238,1.668c-0.039-1.17-0.212-2.343-0.212-3.208c2.7-0.642,4.737-1.946,6.102-3.922
		c-2.002-2.355-3.966-4.75-5.229-7.844c0.889,0.197,2.521,0.193,3.196,0.145c-0.429-0.939-1.381-1.259-2.034-2.034
		c-2.412-2.859-4.189-6.467-5.521-10.459c-0.186-0.008-0.201-0.186-0.436-0.145c-0.008,0.186-0.186,0.201-0.146,0.436
		c0.523,6.587-2.895,10.461-5.229,14.672c1.542,0.04,2.804-0.973,3.632-1.162c-0.648,3.564-2.214,6.211-3.632,9.006
		c1.882,1.238,4.91,2.036,7.699,1.889c0.061,1.226,0.238,2.334,0.281,3.578c-4.747,3.146-9.05,7.517-17.273,6.501
		c-2.879-1.48-6.169-2.48-7.438-5.76c-3.771-9.7,8.33-22.93,0.96-30c-1.246-1.194-3.75-1.921-6.535-2.524
		c0.236-1.042,0.485-2.071,0.953-2.882c2.163-0.132,5.186,0.882,6.682,0c-1.84-2.324-3.123-5.205-3.776-8.716
		c0.972,0.335,1.869,0.746,3.195,0.726c-1.717-2.108-2.793-4.857-3.776-7.699c-2.51,1.751-5.078,3.444-7.408,5.375
		c0.593,0.375,1.443,0.494,2.469,0.436c-1.549,2.76-4.225,4.394-6.827,6.101c1.763,1.868,4.641,2.623,7.118,3.777
		c0.014,0.935-0.28,1.729-0.559,2.484c-2.556-0.503-5.163-0.969-7.137-1.638c-7.58-2.57-17.33-5.96-24.72-2.4
		c-7.849,3.78-8.16,25.58-18.479,24.48c-7.159-0.76-4.479-15.85-10.319-18.48c-0.18-0.081-0.361-0.148-0.544-0.208
		c0.278-0.996,0.138-2.412,0.601-3.222c0.634,0.004,1.346,0.087,1.599-0.291c-0.262-1.481-0.755-2.731-1.308-3.922
		c-1.522,0.802-2.432,2.217-3.051,3.922c0.333,0.345,1.202,0.154,1.598,0.436c0.075,1-0.239,1.95-0.287,2.876
		c-1.21-0.192-2.469-0.003-3.737,0.35c-0.299-2.365-0.81-4.803-1.205-7.002c1.37-0.664,3.282-0.786,3.922-2.179
		c-1.233-1.307-3.053-4.889-4.938-5.229c-0.193-0.035-1.276-0.029-1.308,0c-1.579,1.477-2.51,5.658-3.195,7.99
		c1.127,0.091,3.31,0.031,4.503-0.291c0.639,2.107,0.696,4.795,1.216,7.021c-3.614,1.201-7.226,3.226-9.944,0.949
		c-4.25-3.55,3.938-11.44-0.72-15.36c-2.321-1.95-8.401-0.58-10.562-0.24c-3.649,0.58-6.26,1.29-9.6,2.16
		c-6.441,1.67-12.972,2.48-17.521,6.24c-3.34,2.76-4.8,8.55-5.52,13.68c-0.69,4.93,0.01,11.04-2.16,14.64
		c-2.859,4.732-10.528,3.047-15.896,0.907c0.313-1.054,0.446-2.289,1.125-2.978c0.621,0.013,1.063,0.291,1.598,0
		c0.361-1.635,0.082-3.848-0.581-4.939c-2.173-0.07-3.576,1.832-4.213,3.777c0.176,0.696,1.227,0.517,1.598,1.017
		c-0.097,0.845-0.519,1.721-0.828,2.578c-0.843-0.372-1.604-0.742-2.242-1.082c-1.978-1.055-3.98-2.261-6.05-3.469
		c0.606-0.953,1.033-2.086,1.712-2.966c1.241,0.537,3.749,1.439,4.939,0.291c0.321-2.855,0.297-6.581-1.162-8.135
		c-3.662-0.302-6.148,1.779-8.135,3.631c0.681,1.353,1.849,2.218,2.76,3.341c-0.295,0.75-1.322,1.946-1.599,2.982
		c-5.377-3.067-11.263-5.908-18.386-5.995c-8.859-0.11-15.449,6-24.24,8.88c-0.793,0.26-1.59,0.518-2.387,0.776
		c0.493-1.632,0.152-3.293-2.198-3.592c0.042-1.252,0.021-2.442-0.581-3.051c-1.575-0.477-2.964,0.913-3.776,1.162
		c-0.808-1.412-1.367-3.983-3.051-3.922c-1.799,0.066-2.54,3.112-3.196,4.939c-1.474-0.52-2.589-2.313-4.357-1.888
		c-2.312,0.556-1.291,4.98-1.017,7.263c-1.897-0.105-3.216,0.368-3.923,1.453c-0.352,2.205,0.805,2.717,1.879,3.462
		c-8.611,2.06-17.685,3.565-27.552,3.958c-7.104,0.281-18.271-0.853-24.393-3.457c0.352-0.38,0.721-0.694,1.121-0.826
		c1.171-0.385,2.303,0.29,4.053,0.135c2.594-2.429,3.886-6.842,6.618-9.049c1.325-1.07,4.683-0.266,7.023,0
		c3.43,0.39,7.192,0.908,10.941,0.271c2.083-0.355,3.75-1.218,5.942-1.081c1.023,1.398,2.924,1.996,3.242,3.647
		c0.314,1.629-1.328,3.035-1.485,4.998c1.609-1.498,2.848-3.365,4.051-5.269c-0.756-0.96-1.487-1.804-2.43-2.836
		c-0.395-0.431-0.73-0.545-0.811-0.945c-0.451-2.215,2.688-2.944,3.106-4.862c0.25-1.145-0.149-2.664-0.135-4.053
		c0.028-2.963,0.351-5.574,0.945-8.239c1.787-2.715,6.024-2.979,8.645-4.862c-2.242,0.143-4.982,1.79-7.699,0.945
		c0.337-0.701,1.181-0.32,1.756-0.405c1.264-0.184,2.67-0.499,3.917-0.81c1.221-0.304,2.616-0.49,3.242-1.35
		c-2.368-0.594-6.852,0.906-7.834-1.891c0.408-0.943,1.29-1.412,1.351-2.701c-1.531,0.09-1.834,1.406-3.106,1.755
		c-0.503-0.976-1.002-2.153-0.946-3.242c0.088-1.674,1.691-2.747,1.757-3.917c-0.471,0.373-1.027,1.271-1.622,1.081
		c-1.263-0.88,0.018-3.536-0.54-4.998c-0.225,0-0.45,0-0.676,0c-0.608,1.26,0.339,5.079-0.81,5.133
		c-0.859,0.04-0.374-2.614-1.621-2.567c0.077,1.581,1.441,2.385,2.026,3.647c0.717,1.55,0.374,3.388,0.945,5.402
		c-0.961,0.507-1.912,0.856-3.106,0.811c-0.404-1.216-0.465-2.777-1.081-3.782c0.234-0.982,0.894-2.254,0.81-3.106
		c-0.532,0.548-0.736,1.425-1.485,1.755c-1.124-1.758-0.68-5.083-2.026-6.618c0.147,1.895,1.311,4.159,0.541,6.077
		c-1.229-0.075-1.612-0.998-2.701-1.214c0.636,1.699,3.001,1.655,3.917,3.241c0.619,1.072,0.679,2.704,0.81,4.187
		c-0.852-0.093-1.167-0.725-2.161-0.675c0.141,0.851,1.708,1.441,2.566,2.025c-1.66,4.913-4.385,10.608-9.724,12.291
		c-2.272,0.716-5.103,1.064-8.239,1.351c-2.057,0.188-4.205,0.827-5.943,1.216c-1.655,0.369-3.265,1.178-4.457,1.215
		c-2.225,0.071-2.832-1.754-4.187-2.566c-2.207,2.235,3.248,3.169,3.512,5.672c0.174,1.649-0.749,3.352-1.216,4.998
		c-0.636,2.24-1.163,4.569-2.161,6.348c-2.608,0.341-4.313,1.585-5.658,3.188c-0.254-0.128-0.513-0.255-0.742-0.389
		c-15.07-8.85,11.73-31.72-2.88-42.24c-5.41-3.9-15.9-6.11-23.04-5.76c-7.11,0.35-12.22,3.62-14.4,8.64
		c-2.63,6.04-1.15,14.46-6.24,17.52c-5.944,3.567-10.674-1.806-18.613-1.043c0.02-0.672,0.038-1.345,0.212-1.862
		c3.133,0.13,5.931-0.074,7.554-1.453c-0.575-1.843-2.265-2.864-3.196-4.503c-0.922-1.623-1.506-3.471-2.469-5.229
		c1.064,0.534,1.657,1.539,3.196,1.598c-1.918-2.827-4.023-5.468-4.794-9.442c-1.873,3.405-4.611,5.945-6.973,8.861
		c1.303-0.053,2.096-0.616,3.051-1.017c-1.575,2.928-3.607,5.4-5.52,7.99c1.571,1.673,4.396,2.092,6.682,3.051
		c-0.014,0.909-0.284,1.77-0.495,2.581c-1.873,0.658-3.483,1.688-5.515,2.149c-4.453,1.01-8.105,0.681-11.427-0.244
		c-0.003-0.191-0.003-0.381,0.005-0.564c0.083-1.794,0.128-3.581,0.291-4.939c3.413-0.073,6.585-0.388,7.845-2.615
		c-1.759-1.631-4.328-3.226-5.084-5.375c0.917,0.082,2.002,0.502,2.905,0.146c-0.152-1.101-1.21-1.802-1.889-2.615
		c-2.249-2.695-4.371-5.522-5.665-9.006c-0.008-0.089-0.022-0.172-0.146-0.146c-2.56,5.139-5.946,9.452-10.023,13.074
		c1.775,0.168,4.512-0.709,6.101-0.726c-1.467,2.068-3.669,3.401-5.229,5.375c2.358,1.225,5.723,1.443,8.57,2.179
		c0.234,1.583,0.111,3.012-0.064,4.44c-5.946-2.19-11.133-5.841-18.59-6.183c-12.282-0.57-19.839,4.359-27.4,9.068
		c-0.214-2.323-0.458-4.616-0.575-7.035c2.535-0.516,5.248-0.854,6.392-2.76c-1.253-1.75-3.476-3.303-4.213-5.084
		c0.847,0.027,2.026,0.487,2.76,0.145c-3.038-3.451-6.132-6.845-8.571-10.895c-1.751,4.012-4.309,7.988-5.52,12.057
		c1.397-0.201,2.226-0.969,3.341-1.453c-1.287,2.2-2.609,4.364-3.777,6.683c1.593,1.118,4.111,1.312,6.682,1.453
		c0.511,2.573,0.212,5.955,0.588,8.663c-3.92,2.341-8,4.432-12.878,5.502c-0.191-0.602-0.38-1.21-0.493-1.817
		c-0.409-2.198-0.598-4.518-1.162-6.537c3.638-1.011,7.427-1.87,9.297-4.648c-2.992-2.142-6.609-4.429-8.425-7.264
		c2.271-0.054,4.748,0.1,5.666-1.307c-7.326-3.23-12.525-8.587-16.561-15.107c-0.097,0-0.193,0-0.291,0
		c-0.924,7.937-1.989,15.732-5.811,20.773c2.088,0.191,4.019-1.787,5.666-2.034c-0.768,3.929-2.225,7.169-3.341,10.75
		c2.976,1.067,7.812,0.567,10.75-0.146c0.354,1.749,0.69,3.748,1.017,5.666c0.125,0.734,0.188,1.49,0.264,2.229
		c-0.539,0.059-1.084,0.107-1.644,0.14c-3,0.18-6.25-0.2-8.16-1.2c-4.94-2.585-5.4-11.972-14.827-10.089
		c0.138-2.444-0.099-5.263,0.398-7.348c1.292,0.032,2.569,0.05,3.196-0.582c-0.571-2.819-1.814-4.965-3.051-7.118
		c-2.433,1.344-3.778,3.776-5.375,5.956c0.938,0.902,2.957,0.723,3.922,1.598c-0.132,2.163-0.311,5.302-0.145,7.699
		c0.002,0.025,0.003,0.053,0.004,0.079c-1.444,0.48-2.796,1.335-4.043,2.416c0.646-2.394-1.615-4.109-2.062-6.271
		c0.619-0.447,1.662-0.468,2.034-1.162c-1.348-1.413-2.598-2.922-4.503-3.777c-0.833,1.588-0.709,4.133-0.872,6.392
		c0.96-0.203,1.646-0.679,2.47-1.017c0.865,2.054,1.591,4.248,2.864,5.894c-3.521,3.083-6.186,7.942-7.61,11.171
		c-2.63,5.96-5.03,12.46-9.12,17.76c-2.229,2.89-5.395,4.014-9.014,4.611c-1.639-3.284-2.947-7.368-3.559-11.691
		c3.717-1.319,6.94-3.131,9.442-5.665c-3.764-1.854-6.958-4.275-9.442-7.409c0.929-0.378,2.538-0.077,2.905-1.017
		c-5.542-2.061-8.557-6.647-11.621-11.185c-0.146,0-0.291,0-0.436,0c-0.008,0.186-0.186,0.201-0.145,0.436
		c0.631,3.805-0.027,8.149-1.308,10.75c-1.025,2.083-2.44,3.41-3.777,5.23c1.502,0.42,3.387-0.766,4.358-0.872
		c-0.559,2.104-1.556,3.855-2.615,5.52c-1.077,1.694-2.422,3.071-3.196,4.648c4.032,1.045,9.404,1.342,13.655,0.291
		c0.318,2.715,1.251,5.718,1.453,8.716c0.055,0.82-0.106,1.848-0.054,2.774c-2.344,0.225-4.785,0.432-7.222,0.885
		c0.168-0.417,0.243-0.858,0.157-1.334c-0.24-1.333-2.426-1.842-4.358-1.453c-1.298-1.076-1.344-3.396-3.051-3.777
		c-2.277-0.509-2.675,1.671-3.631,3.196c-3.233-2.015-6.683,0.763-4.213,3.777c-1.765,0.656-6.579,3.719-2.179,4.503
		c-1.762,1.292-0.849,3.691,1.598,3.486c-0.17,0.789-1.21,2.55-0.044,3.023c-0.125,0.637-0.198,1.298-0.185,1.997
		c0.2,10,19.55,15.07,18.72,24c-0.91,9.82-25.77,2.1-28.56,9.12c-3.25,8.18,8.65,9.53,7.44,15.6
		c-0.978,4.889-15.469,1.653-20.857,1.232c0.112-3.607,0.09-7.537,0.97-10.521c3.109,0.376,6.054-0.093,8.135-1.162
		c-2.302-2.977-3.773-6.783-4.358-11.477c1.456,0.395,3.851,0.591,5.084,0.727c-1.59-2.287-3.807-3.971-5.084-6.683
		c-1.262-2.68-2.083-5.711-2.76-9.151c-0.242,0-0.484,0-0.726,0c-2.401,5.928-5.52,11.138-10.314,14.672
		c1.375,0.437,3.757-0.104,4.939,0.146c-1.556,3.673-3.603,6.855-5.665,10.022c1.955,1.797,6.043,2.156,8.57,2.906
		c-0.355,2.261-0.906,4.567-1.307,6.827c-0.219,1.232-0.548,2.412-0.823,3.567c-3.5-0.073-6.741,0.043-9.628,0.368
		c0-1.24-0.333-2.531-0.299-3.79c2.595-0.892,5.421-1.553,6.683-3.777c-2.561-2.33-5.5-5.056-6.683-8.28
		c1.084,0.224,2.486,0.129,3.777,0.146c-2.679-2.938-6.402-6.091-8.426-10.169c-0.931,4.396-3.053,8.373-4.793,11.477
		c1.193,0.302,2.595-1.167,3.631-1.018c-1.161,4.069-2.959,7.5-5.375,10.314c2.232,1.319,5.906,1.916,9.006,1.889
		c0.032,1.188-0.029,2.469,0.131,3.528c-3.181,0.527-5.82,1.357-7.749,2.526c-2.54,1.54-7.38,7.26-4.32,11.76
		c2.08,3.06,10.91,1.63,17.28,1.2c6.83-0.471,12.66-0.02,18.48,0.24c13.05,0.57,25.13-1.03,36-1.92
		c12.67-1.041,25.3-0.051,37.68-0.24c12.05-0.18,24.93-0.9,37.2-0.48c18.1,0.631,38.36,1.631,55.92-0.72
		c6.02-0.81,11.76-1.92,17.52-1.92c17.35,0,36.84,4.489,54.72,1.44c5.83-0.99,11.08-2.83,16.8-2.641c5.15,0.17,10.16,1.96,15.6,2.16
		c5.5,0.21,11.33-0.391,17.28-0.48c22.93-0.369,47.13-0.859,68.88,1.44c11.688,1.24,21.188,4.44,32.158,3.601
		c9.382-0.721,18.682-3.041,28.802-2.641c10.108,0.4,20.58,1.21,30.96,0.48c20.33-1.43,41.948,1.24,61.198-1.2
		c9.44-1.2,18.7,1.43,28.32,2.64c9.79,1.23,19.8,0.67,28.8-1.199c9.222-1.92,18.67-1.58,28.802-0.721
		c9.979,0.85,21.318-0.02,30.479,0.96c6.809,0.72,11.469,5.011,18.48,3.12C686.116,130.107,672.32,125.849,655.945,126.299z
		 M355.538,40.085c0.073,1.817-1.228,2.259-1.889,3.341C353.304,41.917,353.838,40.032,355.538,40.085z M350.312,44.781
		c-0.418,0.224-2.269,0.268-2.765-0.048C348.5,43.812,349.728,44.875,350.312,44.781z M334.271,14.695
		c-0.04,0.276-0.365,0.266-0.405,0.541c-0.4-0.05-0.667-0.234-0.811-0.541C333.117,13.792,334.194,13.964,334.271,14.695z
		 M329.678,16.316C327.762,14.99,331.595,14.99,329.678,16.316L329.678,16.316z M61.666,64.635
		c-0.021,0.657-0.771,0.584-1.453,0.581C59.904,64.101,61.361,63.905,61.666,64.635z M56,67.395
		c-0.249,0.526-0.417,1.132-1.307,1.017c-0.064-0.129-0.127-0.26-0.291-0.291C54.312,67.025,55.486,66.715,56,67.395z
		 M198.16,127.52c-3.6-6.479-5.1-15.06-8.88-21.359c-2.91,2.529-1.4,9.48-2.88,13.439c-4.64,2.881-11.26,3.78-17.28,5.28
		c-2.36-4.84-3.07-11.33-6-15.601c-2.31,4.49-2.39,11.211-3.84,16.561c-7.57-0.51-14.04-2.119-21.36-2.88
		c1.3-13.26,1.73-27.39,2.16-41.521c-5.69-1.209-12.44-0.85-18.96-0.719c-0.32-5.281-0.3-12.171-0.48-16.801
		c12.68-0.76,24.94-1.94,37.92-2.4c5.03,9.45,10.95,18.009,18.24,25.201c4.08-6.24,4.96-15.681,7.44-23.521
		c9.46-0.87,20.23,0.92,29.04-0.72c1.9,18.5,2.64,39.44,3.12,58.56C210.33,123.21,203.84,124.96,198.16,127.52z M223.12,123.68
		c-0.03-14.27,0.67-27.81,1.68-41.039c4.68-1.881,10.59-2.531,15.6-4.08c-0.28,6.369-0.85,13.709-0.24,20.16
		c6.54-1.091,14.84-1.261,20.88-3.361c1.98-9.26,0.45-19.35,0.48-29.759c4.19-0.85,9.23-0.85,13.2-1.92
		c3.68,19.32,5.02,41.19,7.68,61.919C262.98,125.58,242.1,124.939,223.12,123.68z M370.721,129.439
		c-7.611,0.391-14.49,1.511-22.8,1.201c-3.3-9.341-5.75-19.531-10.08-27.841c-2.03,3.101-1.75,2.5-2.4,3.841
		c-2.66,5.539-6.97,10.52-9.36,16.319c-2.92-5.88-5.42-12.181-8.88-17.521c-1.98,6.451-2.36,14.261-3.84,19.92
		c-7.15,1.091-13.84,2.641-22.32,2.4c0.41-19.3,0.76-38.74-1.44-56.4c10.71-0.25,20.38-1.54,29.76-3.12
		c2.77,6.029,4.61,12.99,8.16,18.24c4.1-5.66,4.72-14.8,7.68-21.601c9.029-1.23,19.18-0.64,27.359-2.4
		c1.9-0.41,1.17,16.491,1.2,19.68c0.12,13.85,0.261,25.311,0.48,38.16c2.819,0.939,6.559,0.959,10.319,0.959
		C373.62,124.34,372.37,127.09,370.721,129.439z M424.96,108.08c-9.1-0.62-19.71-0.311-28.8,0.48
		c-0.221,5.76,0.398,12.709,0.96,18.479c-4.95,0.72-10.99,0.37-15.841,1.2C378.23,108.17,375.1,88.18,372.16,68
		c17.22-1.01,36.77-3.02,54-1.68C425.77,80.25,425.75,94.55,424.96,108.08z M430.72,129.439c1.061-16.42-0.31-33.43,1.44-48.719
		c5.3-0.541,11.59-0.101,17.28-0.24c2.738,15.66,3.06,33.74,5.76,49.439C447.21,129.59,438.89,129.59,430.72,129.439z
		 M498.161,85.28c-0.901,14.89-3.441,30.13-4.8,45.36c-5.87-1.25-14.222-0.021-19.92-1.44c0.469-14.46,1.568-29.4,0.479-43.921
		c-3.08-1.079-8.51-0.819-12.24-0.479c-0.72-8.079-1.439-17.44-1.68-25.2c19.29,1.25,39.16-1.64,57.12-0.24
		c-0.15,8.6,0.321,16.951-0.24,24.72C510.82,84.71,503.92,83.54,498.161,85.28z M580,131.84c-20.67-1.77-43.27,0.57-64.321-0.96
		c0.821-7.42,1.63-14.851,2.642-22.08c8.66-5.5,18.05-10.271,25.92-16.56c-4.38-1.62-11.721-0.28-17.28-0.721
		c0.08-6.399-0.42-12.209-0.24-18.72c13.74-1.43,30.25-2.17,43.2-3.12c2.66-0.2,1.93,2.47,2.16,5.759
		c0.46,6.601-0.18,15.141,0,21.121c-5.391,6.129-11.51,11.529-16.8,17.76c6.12,0.31,16.778-0.94,24.96-0.961
		C580.42,119.779,579.86,125.46,580,131.84z M652.896,121.579c0.508,1.283,0.365,3.217,0.55,4.824
		c-0.449,0.025-0.899,0.053-1.351,0.083C652.039,124.51,651.543,121.828,652.896,121.579z M656.818,109.231
		c-0.364,0.507-1.247,0.496-2.033,0.581C655.152,109.365,656.07,108.828,656.818,109.231z M653.187,109.667
		c-0.401,0.297-1.687,0.224-1.888-0.146C651.826,109.099,652.672,109.344,653.187,109.667z M650.639,126.595
		c-0.465,0.04-0.958,0.088-1.479,0.142c0.466-0.555,0.853-1.136,1.121-1.671C650.469,125.507,650.543,126.062,650.639,126.595z"/>
	<path fill-rule="evenodd" clip-rule="evenodd" fill="#FFFFFF" d="M366.433,19.457c0.432-0.42-0.162-1.302,0.146-1.598
		c1.729,0.637,2.23-1.588,3.341-2.034c0.625-0.25,1.951-0.189,2.47-0.145c1.423,0.122,2.91,1.105,3.776,1.888
		c-1.54,2.672-3.054,5.371-4.067,8.571c0.258,0.566,1.076,0.57,1.162,1.308c-0.649,0.581-1.73,1.437-2.614,1.307
		c-0.048-0.534,0.124-1.286-0.146-1.598c-1.858-0.417-3.96-0.592-5.956-0.872c-0.297,0.97-0.825,2.159-1.162,3.341
		c-0.331,1.16-0.997,2.657-0.29,3.486c1.262-0.143,1.025-1.783,1.889-2.324c1.591,0.588,3.422,0.936,5.084,1.453
		c0.431-0.199,0.161-1.098,0.436-1.453c1.938-0.483,3.271-1.572,4.794-2.469c1.981,0.889,4.628,1.7,7.264,1.017
		c1.516-0.393,2.53-1.946,3.776-2.179c0.979,1.104,2.515,1.649,3.632,2.615c-0.008,0.476-0.413,0.555-0.291,1.162
		c1.996,0.909,3.744,2.067,6.247,2.469c1.33-1.918,2.339-4.774,2.179-7.263c-1.542,0.202-1.47,2.017-2.76,2.47
		c-1.396-0.492-2.225-1.553-3.632-2.034c-0.531,0.098-0.296,0.963-0.872,1.017c-3.137-1.463-5.882-3.317-7.408-6.392
		c0.572,0.106,0.925,0.298,1.453,0.291c2.186-0.032,4.576-3.042,2.76-4.503c-0.882,0.511-0.371,1.747-0.872,2.47
		c-0.934,1.349-3.069,1.092-4.357,0.291c-0.388-1.404-1.242-2.341-1.162-4.213c5.376-0.277,7.601-6.78,4.938-10.75
		c-2.46-3.668-10.689-4.769-15.397-2.905c0.53,5.642,3.062,10.48,7.408,12.783c-0.551,0.515-0.761,1.37-1.453,1.743
		c-1.428-0.524-2.33-1.558-4.212-1.743c-1.163-0.114-2.464,0.519-3.486,0.291c-0.933-0.208-1.302-1.398-2.18-1.307
		c-0.051-0.887,0.772-1.301,0.291-2.179C360.644,9.827,359.942,20.519,366.433,19.457z M376.602,9.87
		c-0.135-1.597,1.193-3.911,2.324-4.358c0.437-0.173,1.035-0.086,1.598-0.146c2.873-0.302,6.02,0.964,5.229,4.648
		c-0.338,1.576-2.711,3.621-5.084,3.341C379.049,13.165,376.751,11.646,376.602,9.87z M366.724,14.663
		c0.699,0.269,1.279,0.658,1.452,1.453c-0.31,0.465-0.824,0.725-1.598,0.727C366.432,16.436,366.586,15.252,366.724,14.663z"/>
	<path fill-rule="evenodd" clip-rule="evenodd" fill="#FFFFFF" d="M380.523,7.255c-0.094-0.628-1.335-0.549-1.308,0.145
		C379.294,8.012,380.609,8.008,380.523,7.255z"/>
	<path fill-rule="evenodd" clip-rule="evenodd" fill="#FFFFFF" d="M384.155,8.998c0.267-1.266-1.51-1.558-1.453-0.291
		C382.888,9.208,383.806,9.489,384.155,8.998z"/>
	<path fill-rule="evenodd" clip-rule="evenodd" fill="#FFFFFF" d="M383.429,10.886c-0.294-1.382-3.227-2.185-4.358-1.307
		C378.286,12.258,382.771,13.61,383.429,10.886z"/>
</g>
</svg>
