<?xml version="1.0" encoding="utf-8"?>
<!-- Generator: Adobe Illustrator 15.0.0, SVG Export Plug-In . SVG Version: 6.00 Build 0)  -->
<!DOCTYPE svg PUBLIC "-//W3C//DTD SVG 1.1//EN" "http://www.w3.org/Graphics/SVG/1.1/DTD/svg11.dtd" [
	<!ENTITY ns_extend "http://ns.adobe.com/Extensibility/1.0/">
	<!ENTITY ns_ai "http://ns.adobe.com/AdobeIllustrator/10.0/">
	<!ENTITY ns_graphs "http://ns.adobe.com/Graphs/1.0/">
	<!ENTITY ns_vars "http://ns.adobe.com/Variables/1.0/">
	<!ENTITY ns_imrep "http://ns.adobe.com/ImageReplacement/1.0/">
	<!ENTITY ns_sfw "http://ns.adobe.com/SaveForWeb/1.0/">
	<!ENTITY ns_custom "http://ns.adobe.com/GenericCustomNamespace/1.0/">
	<!ENTITY ns_adobe_xpath "http://ns.adobe.com/XPath/1.0/">
]>
<svg version="1.1" id="_x35__VIDEOS" xmlns:x="&ns_extend;" xmlns:i="&ns_ai;" xmlns:graph="&ns_graphs;"
	 xmlns="http://www.w3.org/2000/svg" xmlns:xlink="http://www.w3.org/1999/xlink" x="0px" y="0px" width="47.134px"
	 height="56.212px" viewBox="0 0 47.134 56.212" enable-background="new 0 0 47.134 56.212" xml:space="preserve">
<metadata>
	<sfw  xmlns="&ns_sfw;">
		<slices>
			<slice  sliceID="336140" y="329" x="414" height="57" width="48"></slice>
		</slices>
		<sliceSourceBounds  y="329" x="414" height="57" width="48" bottomLeftOrigin="true"></sliceSourceBounds>
	</sfw>
</metadata>
<path fill="#898989" d="M40.551,27.442l3.292-10.333L35.467,1.442c0,0-25-1.667-25.083-1.417S0,28.382,0,28.382l12.467,25.811
	c0,0,23.416,2.25,23.5,2s2.75-24.083,2.75-23.833s8.417,1.5,8.417,1.5L40.551,27.442z M27.425,7.88l4.062,0.688l-1.75,7.312
	l-3.125-0.562L27.425,7.88z M14.551,8.744c0,0,3.25,5.949,3.5,5.865s1.666-7.5,1.666-7.5L23.4,6.775l-2.007,11.229
	c0,0-4.266,0.516-4.266,0.547s-5.077-8.026-5.077-8.026C12.051,10.609,14.551,8.744,14.551,8.744z M9.925,31.442
	c0.289-0.173-2.5-7.75-2.5-7.75l4.938-2.5l4.312,3.062l-0.312,6.846C16.362,31.101,9.612,31.63,9.925,31.442z M12.801,46.484
	c0.041-0.208-1-9.541-1-9.541l7.458-0.209l0.167,9.542L12.801,46.484z M21.342,22.068l6.75,0.458l-0.375,2.417l-3,0.041
	l-0.208,1.354l1.875,0.438l-0.083,0.876l-1.542,0.454l0.042,1.338l3,0.375v1.875l-6.875-0.211L21.342,22.068z M32.717,41.401
	l-5.5-0.417l-0.041,1.334l3.666,0.708l-0.458,6.417l-5.5-0.709l0.125-2c0,0,4.165,0.375,4.041,0.25s0-1.958,0-1.958l-4.874-0.708
	l0.333-7.084l8.584,0.709L32.717,41.401z M34.301,26.881h-2.417v-1.771l2.417,0.25V26.881z M36.55,15.88
	c-0.188,0.25-2.688-1.062-2.688-1.062l0.562-1.812l2.688,1.453C37.112,14.458,36.737,15.63,36.55,15.88z"/>
</svg>
