<?xml version="1.0" encoding="utf-8"?>
<!-- Generator: Adobe Illustrator 15.0.0, SVG Export Plug-In . SVG Version: 6.00 Build 0)  -->
<!DOCTYPE svg PUBLIC "-//W3C//DTD SVG 1.1//EN" "http://www.w3.org/Graphics/SVG/1.1/DTD/svg11.dtd" [
	<!ENTITY ns_extend "http://ns.adobe.com/Extensibility/1.0/">
	<!ENTITY ns_ai "http://ns.adobe.com/AdobeIllustrator/10.0/">
	<!ENTITY ns_graphs "http://ns.adobe.com/Graphs/1.0/">
	<!ENTITY ns_vars "http://ns.adobe.com/Variables/1.0/">
	<!ENTITY ns_imrep "http://ns.adobe.com/ImageReplacement/1.0/">
	<!ENTITY ns_sfw "http://ns.adobe.com/SaveForWeb/1.0/">
	<!ENTITY ns_custom "http://ns.adobe.com/GenericCustomNamespace/1.0/">
	<!ENTITY ns_adobe_xpath "http://ns.adobe.com/XPath/1.0/">
]>
<svg version="1.1" id="_x31_" xmlns:x="&ns_extend;" xmlns:i="&ns_ai;" xmlns:graph="&ns_graphs;"
	 xmlns="http://www.w3.org/2000/svg" xmlns:xlink="http://www.w3.org/1999/xlink" x="0px" y="0px" width="44.744px"
	 height="58.164px" viewBox="0 0 44.744 58.164" enable-background="new 0 0 44.744 58.164" xml:space="preserve">
<metadata>
	<sfw  xmlns="&ns_sfw;">
		<slices>
			<slice  sliceID="184877" y="322" x="34" height="59" width="45"></slice>
		</slices>
		<sliceSourceBounds  y="322" x="34" height="59" width="45" bottomLeftOrigin="true"></sliceSourceBounds>
	</sfw>
</metadata>
<g id="XMLID_6_">
	<g>
		<path fill="#EECE37" d="M43.452,28.339c2.08,10.5,1.36,19.11-5.04,23.521c-3.97,2.729-11.46,5.67-15.36,6
			c-8.34,0.7-13.61-5.521-17.52-10.32c-2.19-2.7-5.37-7.109-5.28-11.04c0.07-3,2.3-7.38,3.6-10.319c2.83-6.37,5.75-12.641,9.6-18
			c1.2-1.681,5.24-8.221,7.44-7.92c3.77,0.52,7.49,5.27,10.32,7.92c3.53,3.31,6.84,6.26,8.4,9.359c-5.58-0.819-10.74-4.37-16.8-3.12
			c-2.2,5.23-1.27,18.021,0.24,23.28c1.12,3.88,3.49,5.45,7.92,3.6C36.592,38.959,39.222,32.049,43.452,28.339z"/>
	</g>
	<g>
	</g>
</g>
</svg>
