<?xml version="1.0" encoding="utf-8"?>
<!-- Generator: Adobe Illustrator 15.0.0, SVG Export Plug-In . SVG Version: 6.00 Build 0)  -->
<!DOCTYPE svg PUBLIC "-//W3C//DTD SVG 1.1//EN" "http://www.w3.org/Graphics/SVG/1.1/DTD/svg11.dtd" [
	<!ENTITY ns_extend "http://ns.adobe.com/Extensibility/1.0/">
	<!ENTITY ns_ai "http://ns.adobe.com/AdobeIllustrator/10.0/">
	<!ENTITY ns_graphs "http://ns.adobe.com/Graphs/1.0/">
	<!ENTITY ns_vars "http://ns.adobe.com/Variables/1.0/">
	<!ENTITY ns_imrep "http://ns.adobe.com/ImageReplacement/1.0/">
	<!ENTITY ns_sfw "http://ns.adobe.com/SaveForWeb/1.0/">
	<!ENTITY ns_custom "http://ns.adobe.com/GenericCustomNamespace/1.0/">
	<!ENTITY ns_adobe_xpath "http://ns.adobe.com/XPath/1.0/">
]>
<svg version="1.1" id="C" xmlns:x="&ns_extend;" xmlns:i="&ns_ai;" xmlns:graph="&ns_graphs;"
	 xmlns="http://www.w3.org/2000/svg" xmlns:xlink="http://www.w3.org/1999/xlink" x="0px" y="0px" width="48.25px"
	 height="15.281px" viewBox="0 0 48.25 15.281" enable-background="new 0 0 48.25 15.281" xml:space="preserve">
<metadata>
	<sfw  xmlns="&ns_sfw;">
		<slices></slices>
		<sliceSourceBounds  x="225.375" y="242.859" width="48.25" height="15.281" bottomLeftOrigin="true"></sliceSourceBounds>
	</sfw>
</metadata>
<polygon fill="#FFFFFF" points="10.612,0.595 1.537,0 0.878,7.292 5.196,7.292 5.196,8.707 0.878,8.707 0,13.618 11.417,13.096 
	10.026,4.614 4.83,4.316 4.61,2.753 10.026,3.274 "/>
<polygon fill="#FFFFFF" points="14.199,0.614 13.614,14.947 18.64,14.947 18.171,9.864 21.093,9.697 21.093,14.947 24.364,15.281 
	24.364,0.364 20.393,0.364 20.393,6.781 17.938,7.114 18.171,0.03 "/>
<polygon fill="#FFFFFF" points="27,1.144 27,13.75 36.417,14.167 34.956,1.144 "/>
<polygon fill="#FFFFFF" points="39.2,14.583 38.584,0.75 48.25,1.156 47.547,7.87 41.924,7.87 41.834,14.583 "/>
</svg>
