<?xml version="1.0" encoding="utf-8"?>
<!-- Generator: Adobe Illustrator 15.0.0, SVG Export Plug-In . SVG Version: 6.00 Build 0)  -->
<!DOCTYPE svg PUBLIC "-//W3C//DTD SVG 1.1//EN" "http://www.w3.org/Graphics/SVG/1.1/DTD/svg11.dtd" [
	<!ENTITY ns_extend "http://ns.adobe.com/Extensibility/1.0/">
	<!ENTITY ns_ai "http://ns.adobe.com/AdobeIllustrator/10.0/">
	<!ENTITY ns_graphs "http://ns.adobe.com/Graphs/1.0/">
	<!ENTITY ns_vars "http://ns.adobe.com/Variables/1.0/">
	<!ENTITY ns_imrep "http://ns.adobe.com/ImageReplacement/1.0/">
	<!ENTITY ns_sfw "http://ns.adobe.com/SaveForWeb/1.0/">
	<!ENTITY ns_custom "http://ns.adobe.com/GenericCustomNamespace/1.0/">
	<!ENTITY ns_adobe_xpath "http://ns.adobe.com/XPath/1.0/">
]>
<svg version="1.1" id="Layer_1" xmlns:x="&ns_extend;" xmlns:i="&ns_ai;" xmlns:graph="&ns_graphs;"
	 xmlns="http://www.w3.org/2000/svg" xmlns:xlink="http://www.w3.org/1999/xlink" x="0px" y="0px" width="117.247px"
	 height="28.282px" viewBox="0 0 117.247 28.282" enable-background="new 0 0 117.247 28.282" xml:space="preserve">
<metadata>
	<sfw  xmlns="&ns_sfw;">
		<slices></slices>
		<sliceSourceBounds  x="190.876" y="236.359" width="117.247" height="28.282" bottomLeftOrigin="true"></sliceSourceBounds>
	</sfw>
</metadata>
<path fill="#FFFFFF" d="M0,0v28.282h117.247V0H0z M106.306,19.719v3.902h-9.179V4.45h3.901v15.269H106.306z M92.745,23.622h-4.498
	l-1.775-5.195h-4.239l-1.75,5.195h-4.497L81.603,4.45h5.524L92.745,23.622z M60.463,8.351v-3.9h12.863v3.9h-4.481v15.271h-3.901
	V8.351H60.463z M57.472,4.45v19.171h-3.901V4.45H57.472z M42.492,4.45c1.161,0.053,2.11,0.25,2.822,0.596
	c0.717,0.344,1.298,0.75,1.722,1.198c0.431,0.455,0.758,0.913,0.973,1.363c0.173,0.359,0.334,0.663,0.481,0.912l-3.165,2.084
	l-0.17-0.37C45.028,9.96,44.85,9.701,44.627,9.47c-0.225-0.234-0.504-0.436-0.832-0.601c-0.338-0.17-0.764-0.256-1.264-0.256
	c-0.961,0-1.74,0.333-2.314,0.983c-0.564,0.641-0.85,1.491-0.85,2.529v3.844c0,0.509,0.086,0.99,0.256,1.438
	c0.171,0.448,0.409,0.836,0.706,1.15c0.299,0.316,0.652,0.574,1.05,0.764c0.407,0.192,0.856,0.292,1.329,0.292h0.001l0.137,0.001
	c0.608,0,1.117-0.121,1.512-0.359c0.419-0.254,0.744-0.582,0.961-0.979l0.034-1.391h-2.094v-3.266h5.809v6.529
	c-0.314,0.438-0.691,0.869-1.12,1.282c-0.45,0.431-0.959,0.816-1.514,1.138c-0.552,0.323-1.168,0.589-1.834,0.783
	c-0.663,0.194-1.367,0.293-2.122,0.293c-1.139,0-2.155-0.188-3.018-0.562c-0.86-0.367-1.59-0.892-2.17-1.547
	c-0.584-0.658-1.042-1.457-1.365-2.373c-0.324-0.924-0.507-1.947-0.541-3.037v-4.08c0-1.027,0.155-2.015,0.463-2.937
	c0.305-0.917,0.76-1.728,1.352-2.413c0.591-0.684,1.336-1.234,2.214-1.641c0.878-0.404,1.91-0.608,3.065-0.608V4.172L42.492,4.45z
	 M32.048,4.45v19.171h-3.901V4.45H32.048z M23.937,14.036c0,1.294-0.149,2.542-0.442,3.708c-0.289,1.15-0.773,2.174-1.437,3.041
	c-0.659,0.86-1.534,1.557-2.604,2.067c-1.072,0.507-2.404,0.769-3.963,0.769h-4.284V4.45h3.701c1.492,0,2.819,0.244,3.946,0.733
	c1.124,0.485,2.073,1.157,2.819,1.997c0.749,0.842,1.318,1.859,1.693,3.026C23.744,11.387,23.937,12.675,23.937,14.036z"/>
</svg>
