<?xml version="1.0" encoding="utf-8"?>
<!-- Generator: Adobe Illustrator 15.0.0, SVG Export Plug-In . SVG Version: 6.00 Build 0)  -->
<!DOCTYPE svg PUBLIC "-//W3C//DTD SVG 1.1//EN" "http://www.w3.org/Graphics/SVG/1.1/DTD/svg11.dtd" [
	<!ENTITY ns_extend "http://ns.adobe.com/Extensibility/1.0/">
	<!ENTITY ns_ai "http://ns.adobe.com/AdobeIllustrator/10.0/">
	<!ENTITY ns_graphs "http://ns.adobe.com/Graphs/1.0/">
	<!ENTITY ns_vars "http://ns.adobe.com/Variables/1.0/">
	<!ENTITY ns_imrep "http://ns.adobe.com/ImageReplacement/1.0/">
	<!ENTITY ns_sfw "http://ns.adobe.com/SaveForWeb/1.0/">
	<!ENTITY ns_custom "http://ns.adobe.com/GenericCustomNamespace/1.0/">
	<!ENTITY ns_adobe_xpath "http://ns.adobe.com/XPath/1.0/">
]>
<svg version="1.1" id="_x32__DESIGN" xmlns:x="&ns_extend;" xmlns:i="&ns_ai;" xmlns:graph="&ns_graphs;"
	 xmlns="http://www.w3.org/2000/svg" xmlns:xlink="http://www.w3.org/1999/xlink" x="0px" y="0px" width="79.44px"
	 height="115.834px" viewBox="0 0 79.44 115.834" enable-background="new 0 0 79.44 115.834" xml:space="preserve">
<metadata>
	<sfw  xmlns="&ns_sfw;">
		<slices>
			<slice  sliceID="218491" y="279" x="99" height="116" width="80"></slice>
		</slices>
		<sliceSourceBounds  y="279" x="99" height="116" width="80" bottomLeftOrigin="true"></sliceSourceBounds>
	</sfw>
</metadata>
<path fill="#898989" d="M79.44,21.667L58,0L21.834,6.167L4.5,31.63L0,69.5l17.334,46.334h25.833L59,97.5l2.667-34.833l7,5.749
	l-2.833-8.464L73,61.5L79.44,21.667z M44.625,12.834l1.938,5.938c0,0-5.938,3.812-5.562,3.75s3.5,1.875,3.5,1.875l-1.25,7.125
	h-1.438l0.312-3.562l-2.938-0.438l-0.25,2l-2.5,0.062c0.062-0.188-1-14.438-1-14.438L44.625,12.834z M21,16.271l8.625-1.125
	l0.562,4.875l-5.875,0.25l-0.188,6.75l4,0.062l0.125-2.062l-1.812-0.375c0,0,0.25-1.25,0.062-1.25s4.688,0.125,4.688,0.125v7.438
	l-10.625-0.438L21,16.271z M22.312,38.959l2.062,6.875l-5.75,2.312l0.812,4.312l-3.312,1.062l-3.25-11.625L22.312,38.959z
	 M23.812,69.834c0.125-0.25-1.062-9.375-1.062-9.375c0,0.188,6-0.562,6-0.562l4.5,4l-0.562,6.688
	C32.688,70.584,23.688,70.084,23.812,69.834z M30.042,75.959v8.333L26.5,83.959l0.25-8.5L30.042,75.959z M15.708,87.334l0.042-2.375
	l3.75-0.208v-2.25h-4.458l-1.292-6.834l8.125-0.208l0.208,3.875h-4.25l0.208,1.542l3.917,0.208l0.583,6.25
	C22.542,87.334,15.792,87.459,15.708,87.334z M33.042,105.292l-4.167,0.042l-3.083-3.917v4.084l-3.25,0.208l-2-9.75l3.792-1.417
	L29,98.959l0.625-5.917H33.5L33.042,105.292z M35.75,47.209l-4.562-0.375l-0.625,2.875l-2.188,0.25c0.062-0.188,0-11,0-11h1.812
	l0.375,3.625l5.188,0.062v-6l5.75,0.5c0,0-2.938,12.75-3.438,13.938h-2.125L35.75,47.209z M46.667,80.359c0,0-6.042-0.017-5.917,0
	l-0.125,5.225l3.458,0.333l0.208-1.916l-1.625-0.084l0.083-0.666h2.875l0.5,7.541l-8.833-0.291l-0.167-14.5h9.542V80.359z
	 M47.75,60.771l-4.25,0.125v2l3.062,0.188v1.688l-3,0.062l0.125,2.938l2.875,0.625v1.312l-7.938-0.562V57.459l9.125,0.458V60.771z
	 M48.5,48.896l-3.562-0.312l1.312-9.625h3.125L48.5,48.896z M65.625,52.209l-9.312,1.312L56,40.459l8.75,0.312v3.094l-4.938,0.719
	l0.562,6.125l5.25-0.25V52.209z M63,33.646c-0.062-0.188-3.25,0.002-3.25,0.002l0.5-6.439l-4.875-1.375l-1.312,3.875l-3.25-0.688
	L53.5,14.074l12.125,4.51C65.625,18.584,63.062,33.834,63,33.646z"/>
</svg>
