<?xml version="1.0" encoding="utf-8"?>
<!-- Generator: Adobe Illustrator 15.0.0, SVG Export Plug-In . SVG Version: 6.00 Build 0)  -->
<!DOCTYPE svg PUBLIC "-//W3C//DTD SVG 1.1//EN" "http://www.w3.org/Graphics/SVG/1.1/DTD/svg11.dtd" [
	<!ENTITY ns_extend "http://ns.adobe.com/Extensibility/1.0/">
	<!ENTITY ns_ai "http://ns.adobe.com/AdobeIllustrator/10.0/">
	<!ENTITY ns_graphs "http://ns.adobe.com/Graphs/1.0/">
	<!ENTITY ns_vars "http://ns.adobe.com/Variables/1.0/">
	<!ENTITY ns_imrep "http://ns.adobe.com/ImageReplacement/1.0/">
	<!ENTITY ns_sfw "http://ns.adobe.com/SaveForWeb/1.0/">
	<!ENTITY ns_custom "http://ns.adobe.com/GenericCustomNamespace/1.0/">
	<!ENTITY ns_adobe_xpath "http://ns.adobe.com/XPath/1.0/">
]>
<svg version="1.1" id="Layer_2" xmlns:x="&ns_extend;" xmlns:i="&ns_ai;" xmlns:graph="&ns_graphs;"
	 xmlns="http://www.w3.org/2000/svg" xmlns:xlink="http://www.w3.org/1999/xlink" x="0px" y="0px" width="685px" height="147px"
	 viewBox="0 0 685 147" enable-background="new 0 0 685 147" xml:space="preserve">
<metadata>
	<sfw  xmlns="&ns_sfw;">
		<slices></slices>
		<sliceSourceBounds  height="140" width="658" y="184" x="-79" bottomLeftOrigin="true"></sliceSourceBounds>
	</sfw>
</metadata>
<polygon fill-rule="evenodd" clip-rule="evenodd" fill="#393939" points="251.334,98 266,98 266,70 251.334,69.708 "/>
<polygon fill-rule="evenodd" clip-rule="evenodd" fill="#393939" points="266,56 266,70.057 280.25,70.057 280.25,126 294,126 
	294,70 336,70 336,56 294,56 294,42 279.631,42 279.631,56 "/>
<path fill-rule="evenodd" clip-rule="evenodd" fill="#FFFFFF" d="M630,126V98h-14.875V69.906H602V56h-42V14h-42v28h-14V28h-28V14
	h-42v28h-84v14h14.168v70H224V84h14v14h13.334V70H266V56h13.631V0H252v28h-98v14.667h-28V28H98v28H84c0,0-0.448,12.993-0.071,13.949
	C83.986,69.965,84.019,69.981,84,70c-0.026,0.026-0.05,0.002-0.071-0.051C82.443,69.536,56.334,70,56.334,70v14h13.667v28.5H42.668
	V126H14v14h462V84h-14v42h-28.25v-14.875H392V126h-14.375V70H447.5v14H462V56h56v28h-14v42h-14v14h182v-14H630z M210,126h-14v-14
	h-14v14h-41.875V84H126V56l42-0.5V70h14V56h28V126z M588,126h-70V98h14V70h42v28h-14v14h28V126z"/>
<polygon fill-rule="evenodd" clip-rule="evenodd" fill="#969696" points="419.625,70 419.625,111.125 433.75,111.125 433.75,126 
	462,126 462,84 447.5,84 447.5,70 "/>
<polygon fill-rule="evenodd" clip-rule="evenodd" fill="#616161" points="532,70 518,70 518,84 504,84 504,126 490,126 490,140 
	574,140 574,126 518,126 518,98 532,98 "/>
</svg>
