<?xml version="1.0" encoding="utf-8"?>
<!-- Generator: Adobe Illustrator 15.0.0, SVG Export Plug-In . SVG Version: 6.00 Build 0)  -->
<!DOCTYPE svg PUBLIC "-//W3C//DTD SVG 1.1//EN" "http://www.w3.org/Graphics/SVG/1.1/DTD/svg11.dtd" [
	<!ENTITY ns_extend "http://ns.adobe.com/Extensibility/1.0/">
	<!ENTITY ns_ai "http://ns.adobe.com/AdobeIllustrator/10.0/">
	<!ENTITY ns_graphs "http://ns.adobe.com/Graphs/1.0/">
	<!ENTITY ns_vars "http://ns.adobe.com/Variables/1.0/">
	<!ENTITY ns_imrep "http://ns.adobe.com/ImageReplacement/1.0/">
	<!ENTITY ns_sfw "http://ns.adobe.com/SaveForWeb/1.0/">
	<!ENTITY ns_custom "http://ns.adobe.com/GenericCustomNamespace/1.0/">
	<!ENTITY ns_adobe_xpath "http://ns.adobe.com/XPath/1.0/">
]>
<svg version="1.1" id="B" xmlns:x="&ns_extend;" xmlns:i="&ns_ai;" xmlns:graph="&ns_graphs;"
	 xmlns="http://www.w3.org/2000/svg" xmlns:xlink="http://www.w3.org/1999/xlink" x="0px" y="0px" width="84.753px"
	 height="71.829px" viewBox="0 0 84.753 71.829" enable-background="new 0 0 84.753 71.829" xml:space="preserve">
<metadata>
	<sfw  xmlns="&ns_sfw;">
		<slices></slices>
		<sliceSourceBounds  x="207.374" y="214.836" width="84.254" height="71.329" bottomLeftOrigin="true"></sliceSourceBounds>
	</sfw>
</metadata>
<path fill="#FFFFFF" d="M81.13,22.186c-5.711-12.14-17.771-23.08-35.76-21.84C27.26,1.596,7.58,10.376,10.09,31.306
	c0.759,6.37,3.379,10.44,6.479,15.36C12.08,49.856,6.8,52.256,0.25,53.385c4.26,2.671,12.55,1.561,18.239,0.961
	c5.381,5.23,9.301,10.64,15.841,13.92c14.07,7.05,34.85,2.04,42.72-7.439C84.701,51.606,87.15,34.976,81.13,22.186z M47.529,53.866
	c-0.63,5.23-9.75,0.45-4.318-2.88C45.899,50.036,47.8,51.606,47.529,53.866z M49.689,42.346c-0.145,0.175-0.271,0.368-0.384,0.576
	c-0.784,1.456-0.841,3.639-1.294,5.424c-0.001,0-0.001,0-0.002,0l0,0c-1.94-0.061-3.021-0.98-4.801-1.2
	c0.141-2.34,0.951-4.011,0.721-6.72c3.21-0.85,6.79-1.961,7.439-4.8c1.15-5.012-2.981-7.181-7.473-7.253
	c-2.693-0.042-5.517,0.669-7.406,1.974c0,0,0-0.001,0-0.001c-0.001,0-0.001,0-0.002,0.001c-0.979-1.66-1.199-4.08-1.68-6.24
	c2.937-2.923,7.138-4.391,11.389-4.494c3.643-0.089,7.321,0.825,10.271,2.684c1.475,0.929,2.767,2.095,3.781,3.49
	C65.97,33.656,59.14,42.336,49.689,42.346z"/>
</svg>
