<?xml version="1.0" encoding="utf-8"?>
<!-- Generator: Adobe Illustrator 15.0.0, SVG Export Plug-In . SVG Version: 6.00 Build 0)  -->
<!DOCTYPE svg PUBLIC "-//W3C//DTD SVG 1.1//EN" "http://www.w3.org/Graphics/SVG/1.1/DTD/svg11.dtd" [
	<!ENTITY ns_extend "http://ns.adobe.com/Extensibility/1.0/">
	<!ENTITY ns_ai "http://ns.adobe.com/AdobeIllustrator/10.0/">
	<!ENTITY ns_graphs "http://ns.adobe.com/Graphs/1.0/">
	<!ENTITY ns_vars "http://ns.adobe.com/Variables/1.0/">
	<!ENTITY ns_imrep "http://ns.adobe.com/ImageReplacement/1.0/">
	<!ENTITY ns_sfw "http://ns.adobe.com/SaveForWeb/1.0/">
	<!ENTITY ns_custom "http://ns.adobe.com/GenericCustomNamespace/1.0/">
	<!ENTITY ns_adobe_xpath "http://ns.adobe.com/XPath/1.0/">
]>
<svg version="1.1" id="_x34__ORIGINAL" xmlns:x="&ns_extend;" xmlns:i="&ns_ai;" xmlns:graph="&ns_graphs;"
	 xmlns="http://www.w3.org/2000/svg" xmlns:xlink="http://www.w3.org/1999/xlink" x="0px" y="0px" width="56.16px" height="68.88px"
	 viewBox="0 0 56.16 68.88" enable-background="new 0 0 56.16 68.88" xml:space="preserve">
<metadata>
	<sfw  xmlns="&ns_sfw;">
		<slices>
			<slice  sliceID="302526" y="326" x="313" height="70" width="57"></slice>
		</slices>
		<sliceSourceBounds  y="326" x="248.667" height="70" width="121.333" bottomLeftOrigin="true"></sliceSourceBounds>
	</sfw>
</metadata>
<path fill="none" d="M-64.893,21.1"/>
<path fill="#898989" d="M56.16,42.267L52.69,7.434L25.524,0L0,17.434c0,0,2.691,48.416,2.524,48.666s42.25,2.78,42.25,2.78
	l5.75-20.613l5.333,3.833l-3.833-8.33L56.16,42.267z M42.19,10.684l0.5,6.833l-4.583,2l4.083,3.417v4.333c0,0-3.5,0.583-3.25,0.5
	s-1.875-4.333-1.875-4.333l-1.125,3.083h-2.916l-1.584-14.75L42.19,10.684z M16.357,12.184h9.833c0,0-0.333,12.25-0.583,12.416
	s-9.25-0.75-9.25-0.75S16.607,12.184,16.357,12.184z M13.274,29.35v11.334l-2.917-0.417c0-0.333-0.917-10.917-0.917-10.917H13.274z
	 M20.44,60.767l-5.5-0.417l-2.833-3.583L11.774,59.6L8.94,59.434c0.25-0.25-0.833-9.917-0.833-9.917l2.667-1.25l4.916,5.917
	l1.417-5.917h4.667L20.44,60.767z M20.191,40.646c-0.25-0.166-0.5-10.667-0.75-10.667s9.166-0.63,9.166-0.63l-0.36,3.88l-4.39-0.333
	l0.25,5.083l3.584,0.167l0.041-1.718h-1.667l-0.041-1.412h3.833v5.63C29.857,40.646,20.441,40.812,20.191,40.646z M32.274,61.434
	c0.083-0.25-1.25-3.667-1.25-3.667l-2.943-0.583L27.44,59.6l-2.333-0.083c0,0,0.583-8.917,0.5-8.75s6.333-1.833,6.333-1.833
	l2.167,11.833C34.107,60.767,32.191,61.684,32.274,61.434z M35.357,32.1h3.583v8.658l-4.083-0.408L35.357,32.1z M42.69,57.35h-5.791
	l0.166-9.666h3.792l-0.333,6.833l2.666,0.688L42.69,57.35z M46.565,38.142l-3.875,0.333v-1.583l3.875-0.463V38.142z M48.607,23.058
	h-3.333c0,0,0.083-1.791,0.208-1.791l3.125-0.167V23.058z"/>
</svg>
