<?xml version="1.0" encoding="utf-8"?>
<!-- Generator: Adobe Illustrator 15.0.0, SVG Export Plug-In . SVG Version: 6.00 Build 0)  -->
<!DOCTYPE svg PUBLIC "-//W3C//DTD SVG 1.1//EN" "http://www.w3.org/Graphics/SVG/1.1/DTD/svg11.dtd" [
	<!ENTITY ns_extend "http://ns.adobe.com/Extensibility/1.0/">
	<!ENTITY ns_ai "http://ns.adobe.com/AdobeIllustrator/10.0/">
	<!ENTITY ns_graphs "http://ns.adobe.com/Graphs/1.0/">
	<!ENTITY ns_vars "http://ns.adobe.com/Variables/1.0/">
	<!ENTITY ns_imrep "http://ns.adobe.com/ImageReplacement/1.0/">
	<!ENTITY ns_sfw "http://ns.adobe.com/SaveForWeb/1.0/">
	<!ENTITY ns_custom "http://ns.adobe.com/GenericCustomNamespace/1.0/">
	<!ENTITY ns_adobe_xpath "http://ns.adobe.com/XPath/1.0/">
]>
<svg version="1.1" id="Layer_1" xmlns:x="&ns_extend;" xmlns:i="&ns_ai;" xmlns:graph="&ns_graphs;"
	 xmlns="http://www.w3.org/2000/svg" xmlns:xlink="http://www.w3.org/1999/xlink" x="0px" y="0px" width="134.848px"
	 height="28.282px" viewBox="0 0 134.848 28.282" enable-background="new 0 0 134.848 28.282" xml:space="preserve">
<metadata>
	<sfw  xmlns="&ns_sfw;">
		<slices></slices>
		<sliceSourceBounds  x="182.128" y="236.359" width="134.744" height="28.282" bottomLeftOrigin="true"></sliceSourceBounds>
	</sfw>
</metadata>
<path fill="#FFFFFF" d="M0.052,0v28.282h134.744V0H0.052z M124.067,4.45v19.171h-4.067l-5.742-10.507v10.507h-4.166V4.45h4.094
	l5.716,10.482V4.45H124.067z M99.146,4.45c1.159,0.053,2.108,0.25,2.819,0.596c0.719,0.344,1.297,0.747,1.725,1.198
	c0.429,0.455,0.756,0.912,0.973,1.363c0.17,0.358,0.332,0.663,0.48,0.912l-3.164,2.084c-0.054-0.114-0.11-0.24-0.173-0.37
	c-0.128-0.274-0.306-0.533-0.527-0.763c-0.224-0.234-0.503-0.436-0.834-0.601c-0.337-0.17-0.76-0.256-1.262-0.256
	c-0.961,0-1.74,0.333-2.313,0.983c-0.564,0.641-0.852,1.491-0.852,2.529v3.844c0,0.512,0.086,0.994,0.256,1.438
	c0.173,0.448,0.41,0.836,0.706,1.15c0.298,0.316,0.652,0.574,1.052,0.764c0.405,0.192,0.854,0.292,1.329,0.292h0.002l0.137,0.001
	c0.607,0,1.117-0.121,1.512-0.359c0.421-0.254,0.743-0.582,0.96-0.978l0.034-0.063v-1.328h-2.093V13.62h5.81v6.529
	c-0.314,0.438-0.692,0.869-1.121,1.28c-0.452,0.434-0.961,0.819-1.512,1.14c-0.555,0.323-1.171,0.588-1.837,0.783
	c-0.662,0.195-1.367,0.293-2.12,0.293c-1.141,0-2.155-0.188-3.021-0.561c-0.857-0.371-1.59-0.893-2.17-1.547
	c-0.582-0.658-1.043-1.457-1.363-2.373c-0.324-0.924-0.509-1.949-0.542-3.037v-4.081c0-1.024,0.155-2.012,0.463-2.937
	c0.306-0.917,0.762-1.728,1.354-2.413c0.59-0.684,1.335-1.234,2.213-1.641c0.878-0.404,1.91-0.608,3.066-0.608V4.172L99.146,4.45z
	 M88.7,4.45v19.171h-3.899V4.45H88.7z M73.521,18.864c0.229,0.277,0.514,0.528,0.843,0.744c0.367,0.241,0.797,0.329,1.179,0.27
	c0.352-0.043,0.695-0.195,1.026-0.455c0.363-0.287,0.537-0.729,0.518-1.321c-0.023-0.36-0.166-0.696-0.427-0.998
	c-0.237-0.274-0.569-0.562-0.996-0.856c-0.909-0.605-1.756-1.14-2.521-1.588c-0.75-0.441-1.413-0.908-1.973-1.388
	c-0.547-0.473-0.979-1.008-1.288-1.593c-0.305-0.572-0.458-1.315-0.458-2.203c0-0.815,0.168-1.539,0.497-2.147
	c0.334-0.617,0.78-1.14,1.328-1.556c0.557-0.419,1.206-0.743,1.927-0.963c0.734-0.22,1.503-0.344,2.281-0.358
	c0.931,0,1.76,0.132,2.46,0.392c0.701,0.264,1.299,0.599,1.775,1.001c0.475,0.398,0.848,0.856,1.113,1.362
	c0.229,0.436,0.392,0.872,0.486,1.303l-3.408,1.344c-0.045-0.125-0.098-0.256-0.16-0.397c-0.118-0.263-0.28-0.509-0.485-0.734
	c-0.203-0.225-0.453-0.417-0.732-0.573c-0.62-0.341-1.502-0.354-2.158,0.142c-0.362,0.274-0.546,0.684-0.546,1.214
	c0,0.413,0.168,0.782,0.497,1.09c0.282,0.262,0.711,0.604,1.34,1.062c0.803,0.452,1.589,0.913,2.339,1.373
	c0.729,0.446,1.386,0.958,1.95,1.524c0.558,0.556,1.015,1.194,1.353,1.896c0.332,0.695,0.504,1.532,0.504,2.492v0.354
	c-0.033,0.59-0.204,1.149-0.507,1.666c-0.307,0.522-0.737,0.986-1.275,1.377c-0.545,0.395-1.219,0.709-1.999,0.938
	c-0.782,0.232-1.687,0.35-2.678,0.35c-0.766,0-1.492-0.104-2.161-0.307c-0.667-0.203-1.278-0.494-1.817-0.863
	c-0.537-0.371-1-0.826-1.376-1.353c-0.335-0.468-0.588-0.997-0.757-1.573l3.726-1.562c0.021,0.037,0.036,0.074,0.061,0.119
	C73.12,18.329,73.295,18.59,73.521,18.864z M63.805,12.084v3.9h-5.618v3.735h7.634v3.902H54.283V4.45H65.82v3.9h-7.634v3.733
	L63.805,12.084L63.805,12.084z M50.073,14.036c0,1.296-0.149,2.546-0.441,3.71c-0.29,1.15-0.771,2.174-1.438,3.039
	c-0.654,0.86-1.53,1.557-2.603,2.067c-1.07,0.507-2.404,0.769-3.964,0.769h-4.283V4.45h3.7c1.491,0,2.819,0.244,3.946,0.733
	c1.122,0.482,2.07,1.156,2.82,1.997c0.747,0.843,1.318,1.86,1.691,3.026C49.884,11.387,50.073,12.674,50.073,14.036z M32.419,20.515
	v3.106h-3.082v-3.106H32.419z M17.652,4.45c1.158,0.053,2.107,0.25,2.82,0.596c0.717,0.344,1.298,0.747,1.723,1.198
	c0.429,0.455,0.757,0.912,0.973,1.363c0.17,0.358,0.334,0.663,0.481,0.912l-3.165,2.084c-0.053-0.114-0.109-0.24-0.171-0.37
	c-0.13-0.274-0.308-0.533-0.528-0.763c-0.225-0.234-0.504-0.436-0.831-0.601c-0.338-0.17-0.764-0.256-1.266-0.256
	c-0.96,0-1.737,0.333-2.313,0.983c-0.563,0.641-0.852,1.491-0.852,2.529v3.844c0,0.51,0.087,0.994,0.257,1.438
	c0.173,0.448,0.411,0.836,0.708,1.15c0.299,0.316,0.65,0.574,1.049,0.764c0.407,0.192,0.856,0.292,1.33,0.292h0.002l0.136,0.001
	c0.607,0,1.118-0.121,1.513-0.359c0.42-0.254,0.742-0.582,0.96-0.978l0.035-0.063v-1.328h-2.095V13.62h5.811v6.529
	c-0.314,0.438-0.692,0.869-1.12,1.28c-0.45,0.434-0.96,0.819-1.514,1.14c-0.555,0.323-1.171,0.588-1.835,0.783
	c-0.662,0.195-1.368,0.293-2.122,0.293c-1.141,0-2.153-0.188-3.02-0.561c-0.858-0.371-1.591-0.893-2.171-1.547
	c-0.58-0.658-1.039-1.457-1.361-2.373c-0.325-0.924-0.508-1.949-0.544-3.037v-4.081c0-1.024,0.155-2.014,0.464-2.937
	c0.307-0.917,0.762-1.728,1.354-2.413c0.592-0.684,1.334-1.234,2.213-1.641c0.879-0.404,1.91-0.608,3.065-0.608V4.172L17.652,4.45z"
	/>
</svg>
