<?xml version="1.0" encoding="utf-8"?>
<!-- Generator: Adobe Illustrator 15.0.0, SVG Export Plug-In . SVG Version: 6.00 Build 0)  -->
<!DOCTYPE svg PUBLIC "-//W3C//DTD SVG 1.1//EN" "http://www.w3.org/Graphics/SVG/1.1/DTD/svg11.dtd" [
	<!ENTITY ns_extend "http://ns.adobe.com/Extensibility/1.0/">
	<!ENTITY ns_ai "http://ns.adobe.com/AdobeIllustrator/10.0/">
	<!ENTITY ns_graphs "http://ns.adobe.com/Graphs/1.0/">
	<!ENTITY ns_vars "http://ns.adobe.com/Variables/1.0/">
	<!ENTITY ns_imrep "http://ns.adobe.com/ImageReplacement/1.0/">
	<!ENTITY ns_sfw "http://ns.adobe.com/SaveForWeb/1.0/">
	<!ENTITY ns_custom "http://ns.adobe.com/GenericCustomNamespace/1.0/">
	<!ENTITY ns_adobe_xpath "http://ns.adobe.com/XPath/1.0/">
]>
<svg version="1.1" xmlns:x="&ns_extend;" xmlns:i="&ns_ai;" xmlns:graph="&ns_graphs;"
	 xmlns="http://www.w3.org/2000/svg" xmlns:xlink="http://www.w3.org/1999/xlink" x="0px" y="0px" width="134.848px"
	 height="28.282px" viewBox="0 0 134.848 28.282" enable-background="new 0 0 134.848 28.282" xml:space="preserve">
<metadata>
	<sfw  xmlns="&ns_sfw;">
		<slices></slices>
		<sliceSourceBounds  x="712.076" y="765.359" width="134.848" height="28.282" bottomLeftOrigin="true"></sliceSourceBounds>
	</sfw>
</metadata>
<g id="Layer_1">
</g>
<g id="COMICS">
	<path fill="#FFFFFF" d="M0,0v28.282h134.848V0H0z M90.578,6.621c0.314,0.229-0.183,0.44-0.283,0.567
		C90.047,7.024,90.495,6.765,90.578,6.621z M79.239,8.889C78.334,9.168,77.977,8.78,79.239,8.889L79.239,8.889z M22.91,20.892
		c-1.553,1.342-3.567,2.521-6.427,2.74c-1.623,0.125-3.667,0.128-4.914-0.472c-2.136-1.028-4.003-4.985-4.253-7.845
		C6.874,10.262,8.77,6.592,11.947,4.92c1.813-0.955,5.79-1.018,8.223-0.094c-0.41,1.292-0.482,2.92-0.851,4.252
		c-3.793-1.086-6.434,2.305-5.292,5.388c0.471,1.27,2.058,2.792,4.442,2.363c1.594-0.288,2.24-1.815,3.308-2.836
		c1.471,0.104,3.053,0.098,4.158,0.567C25.985,17.417,24.578,19.451,22.91,20.892z M42.568,19.286
		c-3.493,3.267-12.797,2.742-13.703-2.646c-0.465-2.756,1.29-6.044,2.74-7.277c0.857-0.729,2.135-1.419,3.024-1.796
		c2.596-0.51,5.614,0.979,7.278,2.269c1.004,0.778,2.294,2.069,2.552,3.497C44.858,15.546,44.005,17.941,42.568,19.286z
		 M59.58,19.758c0.411-0.22,1.227-0.033,1.795-0.095C60.964,19.882,60.149,19.696,59.58,19.758z M65.818,19.853
		c-0.67-1.411-0.917-3.241-1.985-4.254c-0.939,0.729-1.078,2.261-1.606,3.403c-1.624-0.293-3.021,0.403-4.253,0
		c-1.15-0.377-1.197-2.446-2.552-2.553c-0.753,0.79-0.644,2.443-1.04,3.592c-1.441,0.238-3.56,0.27-4.915,0.283
		c-0.046-4.646,0.593-9.424,1.04-13.893c1.304-0.339,2.218-1.452,3.591-1.229c0.838,0.137,1.953,1.307,2.741,1.984
		c0.934,0.802,1.802,1.54,2.646,1.985c1.701-1.417,2.436-3.802,3.78-5.576c2.107-0.461,4.795-0.233,6.805,0.189
		c1.957,4.911,2.956,10.779,4.158,16.445C71.428,20.102,68.819,19.781,65.818,19.853z M77.253,21.175
		c0.276-3.944,0.881-8.065,1.417-11.435c1.373-0.538,3.18-0.09,4.915-0.189c0.562,3.753,1.215,7.417,1.701,11.247
		C82.504,20.819,80.041,21.16,77.253,21.175z M95.871,22.5c-1.988,0.193-4.268-0.646-5.387-2.08
		c-3.079-3.943-2.215-11.318,1.134-13.798c1.008-0.747,3.15-1.861,5.577-1.417c1.615,0.296,2.542,1.749,3.591,2.835
		c-0.454,0.775-1.196,1.262-1.891,1.796c-0.645-0.22-0.766-0.385-1.513-0.378c-4.158,0.039-3.4,7.349,0.284,6.899
		c1.29-0.157,1.929-1.161,2.93-1.985c0.983,0.151,1.853,0.416,2.74,0.662C104.064,20.118,100.094,22.086,95.871,22.5z
		 M124.413,19.097c-1.644,3.278-6.542,4.888-11.719,4.252c-2.739-1.135-4.686-3.063-5.859-5.765
		c1.102-0.567,2.224-1.115,3.591-1.418c0.822,1.75,3.136,2.798,5.198,1.984c1.064-0.419,2.596-2.021,2.174-3.78
		c-0.739-3.081-7.533-1.505-8.695-4.63c-0.264-0.71-0.32-1.898,0-2.741c0.97-2.556,6.191-5.174,9.356-3.686
		c1.864,0.876,2.29,2.295,3.309,4.063c-0.328,0.838-1.115,1.217-1.701,1.796c-0.733-0.244-0.979-0.974-2.175-0.756
		c-1.612,1.894,2.771,3.158,4.159,4.158C123.696,13.761,125.742,16.446,124.413,19.097z"/>
</g>
<g id="DIGITAL" display="none">
	<g display="inline">
		<path fill-rule="evenodd" clip-rule="evenodd" d="M100.991,4.277c2.028,5.003,2.905,11.103,4.018,16.979
			c-1.562-0.037-2.893-0.295-4.55-0.242c-0.78-1.48-1.017-3.48-1.62-5.131c-1.425-0.311-3.285,0.004-4.563,0.293
			c-0.924,1.503-1.562,3.305-2.003,5.313c-1.801,0.06-3.179-0.286-4.952-0.252c1.093-5.719,3.62-11.12,5.093-16.897
			C95.031,4.138,98.427,4.085,100.991,4.277z"/>
		<path fill-rule="evenodd" clip-rule="evenodd" d="M85.309,4.439c0.376,1.299,0.194,3.129,0.29,4.698
			c-1.606,0.282-3.668,0.087-4.844,0.822c-0.231,3.509-0.551,6.926-0.523,10.707c-1.998,0.072-3.552-0.278-5.213-0.525
			c-0.281-3.223-0.24-6.754-0.294-10.191c-0.864-0.354-2.257-0.204-3.204-0.479c-0.106-1.513-0.484-2.768-0.294-4.563
			C75.218,4.078,80.76,3.818,85.309,4.439z"/>
		<path fill-rule="evenodd" clip-rule="evenodd" d="M51.931,4.85c-0.088,1.655-0.039,3.178,0.022,4.689
			c-5.889-1.691-10.503,3.732-7.152,7.736c0.643,0.767,2.634,1.704,4.114,1.706c2.713,0.005,4.092-2.922,0.886-3.462
			c0.018-0.76,0.036-1.518,0.055-2.277c1.914-0.264,3.72,0.148,5.759,0.137c1.373,4.534-0.255,7.759-3.435,9.165
			c-0.72,0.318-1.499,0.778-2.031,0.89c-6.44,1.352-10.984-3.214-11.317-8.713c-0.35-5.799,2.351-12.064,9.245-11.169
			C49.396,3.723,50.243,4.317,51.931,4.85z"/>
		<path fill-rule="evenodd" clip-rule="evenodd" d="M9.447,21.928C8.38,16.995,7.641,10.663,7.177,4.722
			c4.398-2.286,10.645-0.243,13.477,2.465c1.886,1.804,4.59,7.3,2.43,10.51c-1.234,1.832-4.95,4.185-7.08,4.655
			C13.809,22.837,11.652,22.228,9.447,21.928z"/>
		<path fill-rule="evenodd" clip-rule="evenodd" d="M117.676,7.086c0.194,3.085,0.367,6.193,0.582,9.26
			c2.215,0.288,4.298,0.703,6.27,1.222c0.302,1.283,0.17,2.978,0.434,4.298c-4.585,0.074-9.407,0.523-13.941,0.204
			c-0.029-5.795,1.002-10.479,2.103-15.092C114.607,6.476,116.133,6.907,117.676,7.086z"/>
		<path fill-rule="evenodd" clip-rule="evenodd" d="M34.503,5.239c0.968,1.518,0.365,3.641,0.401,5.637
			c0.065,3.592,0.185,7.531,0.136,11.127c-1.712,0.452-4.518,0.156-6.431-0.02c0.676-5.285,0.979-10.963,1.726-16.174
			C31.596,5.486,32.965,5.274,34.503,5.239z"/>
		<path fill-rule="evenodd" clip-rule="evenodd" d="M66.068,7.733c0.9,4.115,1.302,9.401,1.686,13.575
			c-2.034-0.242-4.457-0.114-6.423-0.422c-0.26-4.831,0.104-8.001,0.179-13.128C62.847,7.422,64.71,7.305,66.068,7.733z"/>
		<path fill-rule="evenodd" clip-rule="evenodd" d="M111.138,22.744c0.069-0.184,1.214-0.297,1.067,0.159
			C111.707,22.985,111.637,22.661,111.138,22.744z"/>
	</g>
</g>
<g id="ORIGINAL" display="none">
	<g display="inline">
		<path fill-rule="evenodd" clip-rule="evenodd" d="M34.444,14.751c1.27,2.507,2.461,4.756,3.208,7.487
			c-1.496,0.421-3.072,0.76-4.946,0.802c-1.235-1.305-1.87-3.211-3.076-4.547c-0.289,0.648-0.061,1.811-0.134,2.675
			c-1.035,0.206-2.708,0.206-3.743,0c-0.294-5.188-2.054-8.91-1.605-14.84c4.041-4.547,15.416-1.001,14.038,5.349
			C37.855,13.206,35.999,14.11,34.444,14.751z"/>
		<path fill-rule="evenodd" clip-rule="evenodd" d="M65.326,6.729c-0.086,1.741-0.252,3.403-0.401,5.081
			c-1.916-0.16-3.768-1.277-5.882-0.802c-1.383,0.312-2.406,1.237-2.941,2.407c-0.819,2.555-0.184,5.215,1.604,6.149
			c3.316,1.349,6.743-2.193,3.208-3.342c-0.752-0.244-1.337-0.284-1.906-0.234c0.07-0.28-0.236-1.285,0.017-1.403
			c0.761-0.354,2.333-0.195,3.276-0.172c1.453,0.034,2.982,0.37,3.693,0.874c0.398,2.93-0.129,5.546-1.604,6.818
			c-1.58,1.361-5.059,2.097-7.888,1.204c-2.411-0.763-5.488-4.172-5.748-6.686c-0.371-3.565,1.733-8.018,4.411-9.626
			C57.773,5.431,61.919,5.42,65.326,6.729z"/>
		<path fill-rule="evenodd" clip-rule="evenodd" d="M46.075,6.194c0.948,2.926,1.005,6.652,1.336,10.162
			c0.147,1.55,0.379,3.08,0.535,4.546c-1.867-0.271-3.963-0.316-6.149-0.269c-0.355-4.545-0.104-9.292-0.268-13.77
			C42.931,6.528,44.569,6.427,46.075,6.194z"/>
		<path fill-rule="evenodd" clip-rule="evenodd" d="M90.061,13.014c0.934-1.517,0.778-4.124,1.47-5.884
			c1.665-0.207,3.615-0.128,5.349-0.267c0.12,5.156-0.381,9.69-0.803,14.305c-2.296,0.512-5.128,0.208-7.22-0.267
			c-0.757-1.65-1.347-2.196-2.272-3.677c-0.264-0.533-0.892-1.403-1.383-1.047c-0.697,0.507,0.089,3.029-0.221,3.921
			c-1.692,0.181-3.366,0.379-4.948,0.669c-0.315-4.363-0.409-8.948-0.936-13.103c1.381-1.048,3.543-0.846,4.946-1.471
			c0.814-0.36,2.767,2.374,3.343,3.21C88.355,10.809,88.97,12.35,90.061,13.014z"/>
		<path fill-rule="evenodd" clip-rule="evenodd" d="M111.184,6.194c1.821,5.309,3.98,10.28,5.215,16.178
			c-2.048,0.042-3.801-0.211-5.75-0.268c-0.675-1.24-0.849-2.983-1.738-4.011c-1.279-0.076-2.171,0.234-3.475,0.134
			c-0.713,0.758-0.961,1.981-1.07,3.342c-1.463,0.275-3.405,0.071-5.08,0.134c1.04-5.288,2.779-9.875,4.277-14.706
			C105.913,6.54,108.417,6.235,111.184,6.194z"/>
		<path fill-rule="evenodd" clip-rule="evenodd" d="M124.954,6.729c0,3.699,0,7.399,0,11.096c1.773,0.232,3.566,0.445,5.481,0.535
			c0.282,1.054,0.642,2.032,0.669,3.343c-3.659,0.35-7.979,0.383-11.632,0c-0.011-5.447,0.351-10.523,1.337-14.974
			C121.941,6.499,123.817,6.537,124.954,6.729z"/>
		<path fill-rule="evenodd" clip-rule="evenodd" d="M12.116,7.533c4.752-0.38,8.77,2.127,9.358,6.149
			c1.613,11.02-20.765,11.395-18.048,0C4.231,10.305,8.017,7.86,12.116,7.533z"/>
		<path fill-rule="evenodd" clip-rule="evenodd" d="M73.749,7.533c0.827,4.253,1.372,8.788,1.872,13.369
			c-1.974,0.165-4.023,0.255-6.017,0.401c0.205-4.21,0.562-9.42,1.203-13.638C71.573,7.405,72.778,7.585,73.749,7.533z"/>
		<path fill-rule="evenodd" clip-rule="evenodd" d="M59.578,19.165c-0.017,0.294-0.568,0.057-0.802,0.133
			C58.779,18.93,59.406,18.98,59.578,19.165z"/>
		<path fill-rule="evenodd" clip-rule="evenodd" d="M104.901,21.97c-0.247,0.523-1.455,0.454-2.006,0.269
			C103.315,21.901,104.455,22.284,104.901,21.97z"/>
		<path fill-rule="evenodd" clip-rule="evenodd" d="M116.531,20.099c0.261,0.408,0.445,0.893,0.401,1.604
			C116.993,22.409,116.539,20.614,116.531,20.099z"/>
	</g>
</g>
<g id="G.DESIGN" display="none">
	<g display="inline">
		<path fill-rule="evenodd" clip-rule="evenodd" d="M19.805,7.797c-0.742,1.645-2.134,2.639-2.791,4.368
			c-3.029-1.677-8.137,0.072-7.765,4.003c0.191,2.016,2.4,3.997,4.488,4.002c0.815,0.005,2.523-0.34,2.427-2.061
			c-0.298-0.714-1.596-0.428-2.549-0.484c-0.248-0.399-0.064-1.23-0.121-1.822c2.221-0.284,4.421-0.592,6.916-0.605
			c1.53,5.807-4.018,10.144-10.07,8.249c-3.559-1.112-6.868-6.155-5.824-10.917c1.093-4.982,7.963-10.133,13.831-6.31
			C18.705,6.875,19.243,7.348,19.805,7.797z"/>
		<path fill-rule="evenodd" clip-rule="evenodd" d="M77.796,9.617c-0.696,0.112-1.45,0.168-1.941,0.486
			c-0.396-0.85-0.569-1.379-1.334-1.578c-1.424-0.367-1.937,0.73-1.821,1.699c0.127,1.049,1.329,1.238,2.913,1.941
			c1.708,0.757,4.225,2.483,4.611,4.367c0.473,2.317-0.7,5.033-2.064,5.943c-0.39,0.261-2.247,1.239-2.669,1.335
			c-2.786,0.627-6.28-0.582-7.886-1.819c-0.591-0.455-2.181-2.242-1.699-2.548c0.91-0.575,2.442-1.623,4.005-2.426
			c0.165,1.42,3.985,2.977,4.366,0.485c0.518-3.369-5.64-3.158-6.915-5.096c-1.722-2.619,0.582-6.572,3.154-7.279
			C74.103,4.143,77.337,5.785,77.796,9.617z"/>
		<path fill-rule="evenodd" clip-rule="evenodd" d="M60.083,6.099c0.15,0.7,0.2,1.498,0.364,2.183
			c-1.584,0.761-4.135,0.556-5.945,1.092c-0.088,1.059,0.134,1.808,0.365,2.547c1.324,0.051,2.869-0.12,4.003,0.122
			c0.147,0.571,0.408,1.573,0.243,2.062c-0.83,0.425-2.149,0.357-3.397,0.363c-0.284,0.539,0.061,1.36,0.122,1.941
			c2.061,0.497,4.557-0.235,6.916,0.122c0.093,1.606,0.574,2.822,0.485,4.609c-3.69,0.395-7.975,0.195-12.011,0.243
			c-0.736-5.129-1.347-10.381-1.82-15.771C53.205,5.132,56.51,5.974,60.083,6.099z"/>
		<path fill-rule="evenodd" clip-rule="evenodd" d="M103.758,7.919c-0.755,1.307-2.247,1.878-2.911,3.276
			c-1.458-0.908-3.166,0.259-3.762,1.334c-0.701,2.921,2.306,5.837,4.854,4.974c0.975-0.331,1.493-1.591,0.606-2.427
			c-0.608-0.215-1.146-0.035-1.698,0.121c-0.035-0.411-0.194-0.696-0.122-1.213c1.521-0.219,3.017-0.461,4.854-0.364
			c1.955,4.98-2.122,9.512-6.796,8.251c-1.264-0.342-3.572-2.067-4.609-3.64c-1.916-2.911-1.735-8.16,0.607-10.678
			C96.718,5.472,101.718,4.949,103.758,7.919z"/>
		<path fill-rule="evenodd" clip-rule="evenodd" d="M34.12,21.506c-0.502-4.512-0.431-9.598-0.607-14.438
			c5.788-1.898,11.279,1.669,12.012,6.673C46.477,20.252,40.078,23.338,34.12,21.506z"/>
		<path fill-rule="evenodd" clip-rule="evenodd" d="M120.744,13.864c0.86-1.89,1.077-4.421,1.697-6.552c0.646,0,1.294,0,1.941,0
			c0.35,4.825,1.322,9.03,1.456,14.073c-2.195,0.423-5.042-0.165-7.401,0.121c-1.08-1.751-1.958-3.701-3.519-4.974
			c-0.594,1.225-0.445,3.194-0.606,4.853c-1.405-0.213-3.145-0.09-4.731-0.121c-0.527-4.592,0.488-9.271,0-13.831
			c1.325-0.452,3.408-1.203,4.853-0.849c1.107,0.271,2.428,2.438,3.275,3.519C118.874,11.584,119.667,13.114,120.744,13.864z"/>
		<path fill-rule="evenodd" clip-rule="evenodd" d="M87.259,7.676c1.35,4.03,1.661,9.095,2.427,13.709
			c-2.21-0.107-3.944,0.263-5.824,0.486c-0.224-4.705,0.159-9.658,0.242-14.438C85.259,7.412,86.357,7.446,87.259,7.676z"/>
		<path fill-rule="evenodd" clip-rule="evenodd" d="M49.164,10.224c0.425,0.141,0.265,0.867,0.364,1.334
			C49.255,11.266,49.271,10.683,49.164,10.224z"/>
		<path fill-rule="evenodd" clip-rule="evenodd" d="M125.354,11.315c0.18,0.184,0.194,0.533,0.241,0.85
			C125.134,12.262,125.442,11.591,125.354,11.315z"/>
		<path fill-rule="evenodd" clip-rule="evenodd" d="M29.146,17.625c0,1.172,0,2.346,0,3.517c-1.559-0.031-3.071,0.041-4.61-0.241
			c-0.052-1.228,0.216-2.131,0.122-3.397C26.144,17.393,27.91,16.985,29.146,17.625z"/>
	</g>
</g>
<g id="VIDEOS" display="none">
	<g display="inline">
		<path fill-rule="evenodd" clip-rule="evenodd" d="M119.359,8.1c-0.76,0.794-2.956,1.154-3.946,1.718
			c-0.648-0.407-1.58-2.105-3.438-1.718c-1.34,0.278-1.508,2.412-0.491,3.191c0.945,0.726,2.788,0.668,4.297,1.228
			c1.808,0.67,4.9,2.121,5.051,4.543c0.205,3.295-3.256,5.994-6.523,6.506c-4.463,0.698-7.938-1.212-9.575-4.174
			c0.52-0.911,1.189-1.674,2.086-2.21c0.066,0.968,5.167,3.53,5.771,1.105c0.569-2.294-4.44-3.518-5.401-4.543
			c-0.979-1.042-1.722-3.598-1.229-5.77c0.659-2.901,5.978-5.375,9.698-3.315C117.045,5.43,118.604,6.704,119.359,8.1z"/>
		<path fill-rule="evenodd" clip-rule="evenodd" d="M31.072,5.399c0.275,6.455-0.592,12.829-1.228,18.783
			c-3.395-0.043-6.128-0.747-9.698-0.614c-1.961-1.896-3.389-4.296-4.911-6.63c-1.518-2.327-2.693-5.014-3.683-7.856
			c1.629-0.581,3.234-1.185,4.788-1.841c2.634,3.381,4.299,7.73,6.997,11.049c0.664-0.527,0.334-1.586,0.369-2.333
			c0.138-2.953,0.377-7.163,0.491-10.312C26.298,5.372,28.69,5.39,31.072,5.399z"/>
		<path fill-rule="evenodd" clip-rule="evenodd" d="M50.469,22.094c-0.686-5.083-1.595-9.943-2.21-15.1
			c3.454-0.742,8.354-0.491,11.294,1.596c2.77,1.966,5.115,7.904,2.455,11.418C60.017,22.64,54.725,22.949,50.469,22.094z"/>
		<path fill-rule="evenodd" clip-rule="evenodd" d="M80.179,7.486c0.028,0.994,0.234,1.81,0.245,2.823
			c-1.615,0.595-3.582,0.838-5.279,1.351c-0.036,0.732,0.051,1.341,0.245,1.842c0.819,0,1.637,0,2.456,0
			c0.254,0.44,0.063,1.327,0.123,1.964c-0.815,0.084-1.6,0.202-2.21,0.491c-0.013,0.503-0.024,1.006,0.122,1.351
			c1.642,0.2,3.527,0.156,5.279,0.245c0.34,1.583,0.264,3.583,0.492,5.278c-3.618,0.98-8.043,0.196-11.664-0.245
			c0.229-4.848-0.602-10.617,0.369-15.223C73.276,6.629,77.214,7.143,80.179,7.486z"/>
		<path fill-rule="evenodd" clip-rule="evenodd" d="M93.332,7.977c4.431-0.143,8.931,2.307,7.734,8.103
			c-0.63,3.05-5.855,6.798-10.558,4.91c-0.709-0.284-2.094-1.61-2.578-2.333c-1.82-2.71-1.437-7.749,0.736-9.207
			C89.748,8.725,91.448,8.676,93.332,7.977z"/>
		<path fill-rule="evenodd" clip-rule="evenodd" d="M41.875,8.713c0.373,4.271,0.27,9.267,0.491,13.995
			c-2.122,0.304-4.345,0.024-6.384-0.123c-0.15-4.896,0.247-9.246,0.737-13.504C38.406,8.927,40.016,8.696,41.875,8.713z"/>
		<path fill-rule="evenodd" clip-rule="evenodd" d="M48.505,13.256c0.441,0.172,0.244,0.983,0.369,1.473
			C48.602,14.386,48.573,13.802,48.505,13.256z"/>
		<path fill-rule="evenodd" clip-rule="evenodd" d="M14.621,17.184c0.266-0.258,0.388,0.67,0.737,0.736
			C14.974,18.297,14.824,17.396,14.621,17.184z"/>
	</g>
</g>
</svg>
